<svg xmlns="http://www.w3.org/2000/svg" style="width:0; height:0; visibility:hidden;">
    <symbol id="icon_news_icon_left" viewBox="0 0 400 364">
       <g id="#e4e9d6ff"> <path fill="#e4e9d6" opacity="1.00" d=" M 148.60 0.00 L 152.07 0.00 C 162.45 2.09 166.00 13.35 168.78 22.16 C 179.25 56.44 206.64 81.37 224.11 111.83 C 234.26 128.94 240.39 149.05 237.73 169.06 C 256.21 165.96 275.93 173.79 286.93 189.02 C 291.49 194.65 293.66 201.96 298.92 207.05 C 301.96 210.07 306.62 210.66 310.59 209.38 C 319.86 206.65 327.82 200.92 336.42 196.68 C 332.36 192.38 327.65 188.54 324.71 183.32 C 320.88 176.45 321.10 167.92 323.77 160.69 C 325.05 157.41 327.39 153.84 331.17 153.31 C 334.77 152.93 337.86 155.34 340.29 157.71 C 344.89 162.42 348.69 168.36 349.37 175.04 C 349.92 180.77 348.34 186.41 347.10 191.95 C 352.67 189.41 359.88 186.79 361.23 179.98 C 362.77 171.76 354.17 166.66 352.98 159.05 C 351.84 151.66 352.70 143.78 356.05 137.03 C 358.00 132.96 362.24 129.56 366.98 130.26 C 371.80 130.91 374.74 135.47 376.47 139.60 C 378.84 145.66 380.03 152.40 378.89 158.87 C 376.93 166.81 370.90 172.94 368.65 180.78 C 382.01 176.71 396.77 185.86 400.00 199.23 L 400.00 202.07 C 397.14 208.47 388.95 208.62 382.95 208.71 C 373.38 208.94 364.07 203.09 360.73 194.03 C 350.65 198.90 340.51 203.66 330.34 208.34 C 325.54 210.58 320.18 211.68 315.83 214.80 C 312.88 216.72 313.25 220.68 311.36 223.34 C 308.47 227.71 302.37 228.11 299.38 232.38 C 295.32 238.09 292.56 244.68 288.02 250.05 C 286.38 252.45 281.38 252.13 281.11 248.86 C 280.93 244.86 283.40 241.43 285.10 238.00 C 259.77 262.07 254.07 298.80 232.53 325.53 C 213.35 349.70 182.69 362.01 152.48 364.00 L 138.61 364.00 C 124.94 363.13 111.32 360.10 99.05 353.88 C 92.22 350.34 84.21 348.15 76.64 350.66 C 61.55 355.09 46.85 361.53 31.03 362.97 C 23.83 363.54 15.90 362.65 10.21 357.80 C 3.91 352.28 1.02 343.91 0.00 335.80 L 0.00 330.09 C 0.49 322.94 4.13 316.13 10.09 312.09 C 21.25 304.32 35.41 303.86 47.70 298.76 C 57.59 294.74 67.25 289.47 74.70 281.69 C 78.72 277.38 82.19 272.03 82.55 265.99 C 82.75 260.90 79.23 256.48 74.94 254.15 C 68.73 250.74 62.06 248.01 56.63 243.35 C 47.12 235.17 41.83 222.53 42.35 210.01 C 42.74 204.79 40.20 200.04 36.63 196.41 C 25.54 184.08 16.97 167.01 21.07 150.11 C 21.91 144.67 27.14 141.33 28.36 136.14 C 22.54 127.89 16.38 119.58 13.27 109.83 C 10.32 100.80 10.71 90.56 15.13 82.06 C 16.20 79.62 18.25 76.93 16.95 74.18 C 14.86 69.81 10.74 66.77 8.83 62.29 C 4.99 53.47 2.65 43.62 4.15 34.00 C 5.01 28.09 8.50 22.37 14.07 19.88 C 19.09 17.44 25.04 18.64 29.73 21.25 C 41.14 27.40 48.87 38.31 59.60 45.38 C 76.08 56.90 93.67 66.80 111.90 75.27 C 112.34 65.64 113.79 55.04 120.89 47.88 C 123.58 44.91 128.06 43.46 129.34 39.37 C 131.38 32.61 128.95 25.26 131.58 18.59 C 134.59 10.64 139.95 2.40 148.60 0.00 M 143.39 14.41 C 140.24 19.41 138.14 25.16 137.60 31.06 C 137.15 35.68 139.48 40.16 138.68 44.76 C 137.32 49.17 132.42 50.61 129.00 53.04 C 123.59 56.23 121.94 62.78 120.64 68.48 C 119.46 73.54 121.11 79.59 125.97 82.10 C 141.97 90.35 159.77 95.03 174.74 105.28 C 188.85 114.65 200.37 128.33 205.68 144.55 C 210.32 158.29 210.53 173.19 208.00 187.38 C 210.47 183.79 213.28 180.38 216.77 177.74 C 219.87 175.38 223.82 174.36 226.74 171.74 C 229.76 168.69 230.42 164.16 230.57 160.05 C 230.62 151.19 229.28 142.26 226.05 133.99 C 220.84 120.28 211.84 108.53 203.09 96.94 C 195.22 86.45 187.33 75.95 180.15 64.96 C 170.01 49.30 164.87 31.15 156.50 14.59 C 155.16 12.10 153.15 9.09 149.97 9.19 C 147.00 9.53 144.96 12.10 143.39 14.41 M 13.63 36.46 C 11.88 47.18 15.46 58.40 22.20 66.80 C 25.11 69.89 28.37 72.77 30.13 76.74 C 28.18 81.90 23.72 85.44 21.34 90.31 C 18.59 98.55 21.66 107.35 25.15 114.87 C 28.40 122.17 34.36 127.64 39.01 133.99 C 40.10 135.54 41.59 137.98 39.84 139.62 C 36.72 142.22 32.81 144.17 31.03 148.04 C 25.77 158.78 30.60 171.15 36.28 180.69 C 40.02 187.72 47.71 191.49 51.56 198.40 C 54.44 205.02 50.84 212.25 52.25 219.09 C 54.00 227.23 59.25 234.28 65.83 239.22 C 71.70 243.77 79.62 244.73 85.15 249.81 C 89.50 253.55 92.07 259.32 91.60 265.08 C 91.08 273.42 86.55 280.96 81.13 287.09 C 69.98 299.27 54.60 306.63 38.96 311.20 C 30.10 314.02 20.06 315.37 13.10 322.10 C 6.82 328.55 8.61 338.96 12.82 346.03 C 16.71 352.53 24.95 354.47 32.04 353.81 C 47.25 352.55 61.14 345.61 75.71 341.68 C 93.32 336.60 108.45 349.75 124.95 353.07 C 155.08 358.25 188.70 352.84 212.27 332.26 C 227.16 319.52 237.73 302.58 246.15 285.08 C 255.78 264.06 264.94 241.31 284.00 226.92 C 289.46 222.22 296.85 221.70 303.49 219.79 C 299.66 217.50 295.44 215.85 291.84 213.21 C 285.17 206.63 283.61 196.63 277.16 189.88 C 265.65 177.95 246.67 174.91 231.35 180.37 C 221.26 184.09 214.65 193.02 208.05 201.01 C 204.87 204.45 200.89 208.08 195.97 208.29 C 192.90 208.12 192.94 204.33 193.49 202.13 C 195.26 195.00 198.32 188.25 200.02 181.09 C 204.82 163.27 200.25 143.53 189.06 129.00 C 181.31 118.91 170.73 111.40 159.56 105.51 C 140.25 95.31 119.01 89.44 99.56 79.52 C 74.50 66.56 51.65 49.83 29.46 32.50 C 26.51 30.30 23.05 27.69 19.14 28.46 C 15.67 29.40 14.24 33.27 13.63 36.46 M 365.46 139.49 C 361.05 141.22 360.52 146.87 360.01 150.96 C 359.88 156.13 359.88 162.26 363.77 166.19 C 366.34 168.59 369.44 165.71 370.09 163.04 C 372.22 156.76 372.51 149.69 370.48 143.35 C 369.80 141.26 367.96 138.75 365.46 139.49 M 331.33 162.46 C 327.56 170.41 330.22 180.63 335.83 187.17 C 337.09 188.94 340.49 190.14 341.27 187.30 C 343.66 179.24 342.26 169.85 336.46 163.52 C 335.21 162.14 332.94 160.91 331.33 162.46 M 367.78 190.11 C 370.70 200.49 383.80 204.11 392.86 199.59 C 389.06 189.93 377.02 185.81 367.78 190.11 Z"/> <path fill="#e4e9d6" opacity="1.00" d=" M 243.28 201.38 C 246.37 200.27 250.33 200.89 252.43 203.58 C 255.34 207.19 254.83 213.20 251.07 216.04 C 247.84 218.33 242.73 217.99 240.22 214.78 C 236.87 210.70 238.09 203.29 243.28 201.38 Z"/> </g> 
    </symbol>
    <symbol id="icon_news_icon_right" viewBox="0 0 400 364">
       <g id="#e4e9d6ff"> <path fill="#e4e9d6" opacity="1.00" d=" M 247.45 0.00 L 251.33 0.00 C 260.04 2.33 265.41 10.63 268.43 18.59 C 271.07 25.25 268.64 32.60 270.65 39.36 C 271.92 43.46 276.43 44.90 279.12 47.87 C 286.20 55.04 287.68 65.64 288.09 75.26 C 307.62 66.19 326.44 55.50 343.90 42.88 C 354.25 34.99 362.40 23.56 375.12 19.24 C 383.34 16.38 392.51 22.02 394.88 30.11 C 398.11 40.52 395.53 51.78 391.50 61.60 C 389.67 66.41 385.30 69.59 383.06 74.15 C 381.81 76.64 383.52 79.18 384.56 81.40 C 389.11 89.79 389.76 99.99 386.98 109.05 C 383.95 119.11 377.65 127.68 371.65 136.12 C 372.70 141.08 377.67 144.23 378.72 149.28 C 382.80 163.92 376.65 179.24 367.90 190.93 C 364.52 195.86 358.93 199.73 357.97 205.99 C 357.34 212.23 357.90 218.68 355.67 224.67 C 351.88 237.27 341.57 246.68 329.71 251.71 C 322.80 254.34 315.41 260.71 317.86 268.95 C 321.99 282.92 335.62 291.08 348.02 296.94 C 361.76 303.87 378.47 303.48 391.03 312.92 C 396.12 316.76 399.10 322.75 400.00 328.99 L 400.00 336.00 C 398.95 343.82 396.21 351.82 390.33 357.33 C 384.91 362.32 377.11 363.49 370.01 363.03 C 353.54 361.84 338.32 354.93 322.62 350.48 C 314.43 347.89 306.13 351.17 298.87 354.85 C 287.41 360.43 274.76 362.97 262.12 364.00 L 247.40 364.00 C 227.53 362.36 207.61 357.19 190.75 346.26 C 175.92 337.00 164.11 323.42 155.94 308.04 C 142.86 284.43 135.01 257.08 114.92 238.03 C 116.61 241.46 119.08 244.89 118.89 248.89 C 118.59 252.14 113.59 252.44 111.97 250.04 C 107.44 244.66 104.67 238.09 100.63 232.38 C 97.65 228.10 91.52 227.72 88.64 223.33 C 86.81 220.89 87.20 217.26 84.72 215.25 C 80.56 211.87 75.13 210.82 70.35 208.64 C 59.93 203.89 49.57 198.99 39.26 194.02 C 35.94 203.12 26.58 208.95 17.02 208.71 C 11.02 208.64 3.10 208.41 0.00 202.27 L 0.00 199.27 C 3.21 185.89 17.97 176.71 31.35 180.79 C 28.76 171.44 20.29 164.19 20.66 154.00 C 20.96 146.54 22.57 138.44 27.88 132.84 C 31.68 128.75 38.72 129.68 41.95 134.01 C 47.08 140.73 48.04 149.80 47.21 157.98 C 46.58 166.16 37.21 171.39 38.77 179.98 C 40.12 186.78 47.33 189.42 52.91 191.95 C 51.73 186.73 50.27 181.44 50.54 176.04 C 50.93 168.98 54.88 162.65 59.71 157.71 C 62.14 155.34 65.24 152.92 68.84 153.30 C 72.61 153.84 74.96 157.40 76.24 160.68 C 78.83 167.69 79.11 175.90 75.65 182.67 C 72.77 188.22 67.80 192.19 63.60 196.69 C 72.20 200.91 80.14 206.66 89.41 209.39 C 93.38 210.67 98.03 210.08 101.07 207.06 C 106.34 201.97 108.51 194.65 113.08 189.01 C 124.07 173.79 143.80 165.95 162.28 169.07 C 159.49 148.32 166.24 127.56 176.98 109.99 C 194.59 80.16 221.38 55.34 231.47 21.41 C 234.15 12.88 237.72 2.48 247.45 0.00 M 243.51 14.58 C 235.25 30.93 230.14 48.81 220.25 64.34 C 210.40 79.58 199.07 93.78 188.38 108.44 C 179.52 120.77 171.67 134.58 170.03 149.94 C 169.43 156.17 168.59 162.84 171.19 168.75 C 172.62 172.27 176.26 173.87 179.43 175.47 C 184.77 178.00 188.73 182.63 192.00 187.42 C 189.03 170.93 189.90 153.35 196.90 137.95 C 203.24 123.66 214.51 111.97 227.65 103.71 C 242.31 94.34 259.38 89.86 274.65 81.72 C 282.36 76.77 279.62 66.30 276.52 59.38 C 274.26 53.38 267.52 51.76 263.14 47.84 C 260.08 45.01 261.26 40.60 261.92 37.03 C 263.49 30.14 261.17 23.09 258.11 16.96 C 256.40 13.91 254.38 10.53 250.90 9.32 C 247.39 8.47 244.90 11.86 243.51 14.58 M 370.54 32.50 C 346.98 50.87 322.69 68.70 295.75 81.84 C 270.21 93.96 241.27 100.50 219.64 119.66 C 205.12 132.31 196.71 151.81 198.26 171.08 C 199.06 181.10 202.99 190.46 205.98 199.96 C 206.59 202.43 207.60 205.53 205.72 207.69 C 202.36 209.45 198.76 206.78 196.06 204.89 C 190.00 199.95 186.14 192.88 180.24 187.76 C 165.44 173.68 140.01 174.94 124.90 187.85 C 117.99 193.66 115.90 202.83 110.89 210.01 C 107.70 215.21 101.36 216.64 96.52 219.80 C 102.71 221.66 109.64 222.00 114.91 226.13 C 130.27 237.34 140.00 254.30 147.54 271.39 C 156.18 290.94 165.95 310.52 181.05 325.96 C 192.27 337.65 206.58 346.41 222.24 350.66 C 239.37 355.29 257.55 356.25 275.02 353.07 C 290.29 350.10 303.73 338.73 319.92 340.79 C 336.88 344.06 352.48 353.31 370.00 353.89 C 376.68 354.19 384.09 351.70 387.49 345.56 C 391.30 338.69 393.01 328.99 387.37 322.61 C 381.07 315.95 371.59 314.37 363.19 311.83 C 346.79 307.26 330.54 299.84 318.88 287.09 C 313.22 280.70 308.53 272.74 308.37 264.00 C 308.24 258.58 310.80 253.33 314.86 249.81 C 320.39 244.73 328.31 243.77 334.18 239.22 C 340.74 234.28 345.99 227.25 347.75 219.13 C 349.19 212.28 345.56 205.01 348.46 198.39 C 352.15 191.69 359.52 188.03 363.30 181.36 C 368.76 172.43 373.33 161.46 370.19 150.93 C 368.90 146.03 364.83 142.84 360.82 140.19 C 358.60 138.98 359.33 136.16 360.63 134.56 C 365.27 127.93 371.53 122.40 374.85 114.88 C 378.35 107.35 381.43 98.53 378.66 90.28 C 376.28 85.44 371.85 81.92 369.90 76.79 C 371.57 72.76 374.91 69.92 377.81 66.81 C 384.54 58.41 388.12 47.19 386.38 36.46 C 385.77 33.03 383.99 28.73 380.03 28.30 C 376.39 28.14 373.30 30.42 370.54 32.50 M 32.49 139.59 C 26.90 144.03 28.06 152.68 28.79 159.02 C 29.24 162.50 31.66 169.36 36.20 166.20 C 40.84 161.18 40.41 153.40 39.45 147.09 C 38.80 143.74 36.82 138.41 32.49 139.59 M 65.18 162.21 C 57.88 167.99 56.21 178.68 58.72 187.27 C 59.30 189.74 62.33 189.27 63.63 187.69 C 69.39 181.77 71.41 172.87 69.85 164.88 C 69.60 162.73 67.26 160.73 65.18 162.21 M 7.13 199.48 C 16.09 204.23 29.35 200.46 32.20 190.10 C 22.97 185.81 11.06 189.93 7.13 199.48 Z"/> <path fill="#e4e9d6" opacity="1.00" d=" M 150.36 201.48 C 153.02 200.49 156.27 200.61 158.59 202.40 C 162.42 205.45 162.68 211.83 159.31 215.31 C 156.01 218.70 149.49 218.13 147.07 213.98 C 144.42 209.94 145.67 203.42 150.36 201.48 Z"/> </g> 
    </symbol>
    <symbol id="icon_recomend_icon_left" viewBox="0 0 400 400">
       <g id="#e6ebd8ff"> <path fill="#e6ebd8" opacity="1.00" d=" M 191.66 0.00 L 208.00 0.00 C 247.76 1.74 287.02 15.20 318.91 39.10 C 357.50 67.59 385.49 110.23 395.48 157.22 C 397.97 168.26 399.10 179.54 400.00 190.81 L 400.00 208.72 C 398.20 244.62 387.10 280.11 367.12 310.06 C 346.89 340.62 318.25 365.60 285.06 381.17 C 261.35 392.46 235.36 398.45 209.20 400.00 L 191.27 400.00 C 155.37 398.20 119.89 387.10 89.94 367.12 C 59.39 346.89 34.40 318.26 18.84 285.07 C 7.53 261.32 1.54 235.27 0.00 209.07 L 0.00 191.44 C 1.03 175.16 3.40 158.91 8.10 143.25 C 21.10 98.53 50.61 59.05 89.34 33.30 C 119.52 12.99 155.39 1.73 191.66 0.00 M 181.46 19.66 C 141.28 23.56 102.70 41.61 73.86 69.85 C 50.07 92.79 32.68 122.35 24.49 154.39 C 14.16 194.24 17.75 237.61 34.90 275.07 C 58.52 327.50 108.38 367.30 165.00 377.93 C 201.58 385.07 240.38 380.80 274.37 365.43 C 307.87 350.39 336.48 324.83 355.44 293.41 C 388.90 238.90 389.87 166.44 358.00 111.00 C 339.84 78.87 311.71 52.44 278.42 36.48 C 248.49 22.01 214.51 16.29 181.46 19.66 Z"/> <path fill="#e6ebd8" opacity="1.00" d=" M 166.61 47.57 C 176.72 42.37 189.25 44.62 198.64 50.36 C 212.56 59.14 221.48 74.24 225.24 90.01 C 229.63 107.15 228.60 125.19 225.06 142.38 C 241.04 142.47 257.02 142.50 272.99 142.35 C 290.44 141.44 308.36 149.01 319.50 162.52 C 329.79 174.99 327.34 193.00 321.71 206.95 C 324.54 219.59 324.16 234.01 315.64 244.54 C 313.14 246.68 314.35 250.13 314.06 252.98 C 313.83 266.21 309.78 280.26 299.43 289.16 C 298.41 301.34 293.60 313.26 285.30 322.30 C 280.70 327.53 274.07 331.26 266.98 331.24 C 225.32 331.26 183.66 331.22 142.00 331.32 C 130.86 331.52 119.02 329.06 110.50 321.46 C 102.43 314.45 98.81 303.48 99.05 293.00 C 99.12 259.00 98.90 224.99 99.16 191.00 C 99.42 181.57 107.45 175.56 114.10 170.17 C 132.54 155.42 142.40 133.14 150.60 111.62 C 152.21 106.48 155.17 101.56 154.98 96.02 C 154.98 85.34 154.95 74.67 154.90 63.99 C 154.68 56.62 160.69 50.95 166.61 47.57 M 175.36 66.06 C 175.41 77.04 175.35 88.02 175.39 99.00 C 175.68 104.44 173.09 109.38 171.40 114.39 C 161.22 142.09 148.18 170.85 123.52 188.61 C 120.42 190.61 119.19 194.39 119.27 197.93 C 119.22 229.62 119.28 261.32 119.24 293.01 C 119.16 297.73 120.21 302.88 123.82 306.22 C 127.86 309.98 133.66 310.79 138.96 310.86 C 181.01 310.80 223.06 310.78 265.11 310.86 C 266.92 310.98 268.66 310.23 269.87 308.90 C 276.34 301.96 279.78 292.37 279.06 282.89 C 278.76 276.62 285.54 274.82 288.71 270.69 C 294.44 262.35 293.90 251.67 293.61 242.02 C 293.53 235.89 300.15 233.15 301.73 227.69 C 304.09 221.82 303.21 215.15 300.36 209.62 C 297.76 204.63 299.77 198.12 304.66 195.37 C 305.15 190.90 305.82 186.44 306.12 181.95 C 306.32 177.73 303.07 174.42 300.16 171.81 C 293.39 166.28 284.86 162.51 276.00 162.69 C 254.65 162.84 233.30 162.91 211.95 162.72 C 207.93 162.63 203.97 160.04 202.70 156.15 C 201.26 152.35 202.82 148.39 203.69 144.67 C 207.77 128.32 209.50 110.93 205.39 94.41 C 202.92 84.48 197.82 74.75 189.43 68.61 C 185.41 65.98 180.00 63.63 175.36 66.06 Z"/> </g> 
    </symbol>
    <symbol id="icon_recomend_icon_right" viewBox="0 0 400 400">
       <g id="#e6ebd8ff"> <path fill="#e6ebd8" opacity="1.00" d=" M 190.85 0.00 L 208.89 0.00 C 244.48 1.86 279.68 12.77 309.45 32.49 C 340.07 52.60 365.16 81.14 380.84 114.27 C 392.24 137.90 398.25 163.86 400.00 189.97 L 400.00 209.72 C 397.94 245.27 386.95 280.38 367.12 310.05 C 346.90 340.61 318.26 365.60 285.06 381.17 C 261.60 392.37 235.89 398.27 210.02 400.00 L 190.29 400.00 C 154.74 397.94 119.62 386.95 89.95 367.12 C 59.40 346.90 34.41 318.26 18.84 285.07 C 7.54 261.35 1.57 235.34 0.00 209.17 L 0.00 190.43 C 1.67 164.15 7.71 138.04 19.17 114.26 C 34.85 81.14 59.93 52.61 90.54 32.50 C 120.25 12.82 155.35 1.93 190.85 0.00 M 181.44 19.66 C 141.26 23.57 102.70 41.62 73.86 69.85 C 50.43 92.45 33.20 121.46 24.87 152.95 C 14.15 192.95 17.50 236.63 34.59 274.39 C 58.09 327.14 108.11 367.25 164.97 377.92 C 201.81 385.12 240.90 380.75 275.06 365.11 C 308.26 350.04 336.61 324.62 355.43 293.41 C 388.89 238.90 389.87 166.44 358.00 111.00 C 339.84 78.87 311.70 52.43 278.41 36.47 C 248.47 22.01 214.49 16.29 181.44 19.66 Z"/> <path fill="#e6ebd8" opacity="1.00" d=" M 199.55 51.54 C 208.63 45.28 220.87 42.46 231.38 46.62 C 238.55 49.83 245.76 56.48 245.13 65.01 C 245.00 75.68 245.02 86.36 245.04 97.03 C 245.09 101.65 247.48 105.78 248.84 110.09 C 255.96 128.93 264.05 148.10 278.07 162.94 C 283.48 168.90 290.46 173.16 295.87 179.10 C 299.59 183.09 301.10 188.63 300.97 193.99 C 300.97 227.33 300.98 260.67 300.97 294.01 C 300.96 303.94 297.49 314.20 290.02 320.99 C 281.74 328.70 270.04 331.41 259.00 331.31 C 217.01 331.23 175.01 331.26 133.02 331.24 C 126.91 331.25 121.06 328.48 116.67 324.32 C 107.63 315.52 102.09 303.40 100.79 290.89 C 100.82 289.62 100.20 288.56 99.24 287.79 C 89.43 278.77 86.09 264.86 85.93 251.98 C 85.67 249.71 86.69 246.93 84.83 245.14 C 77.81 236.52 75.33 224.72 77.22 213.86 C 77.62 210.73 79.21 207.39 77.48 204.38 C 73.95 196.81 73.46 188.27 73.58 180.04 C 74.08 169.46 80.89 160.32 89.13 154.17 C 98.90 147.03 110.78 142.33 123.00 142.34 C 140.32 142.45 157.65 142.52 174.97 142.37 C 171.38 125.21 170.39 107.18 174.76 90.07 C 178.35 74.95 186.65 60.53 199.55 51.54 M 211.18 68.20 C 202.59 74.12 197.36 83.87 194.77 93.79 C 190.45 110.52 192.20 128.17 196.34 144.75 C 197.22 148.47 198.76 152.46 197.26 156.25 C 195.96 160.09 192.03 162.62 188.06 162.72 C 166.71 162.91 145.35 162.84 124.00 162.69 C 115.14 162.51 106.61 166.28 99.84 171.81 C 96.92 174.43 93.68 177.74 93.89 181.97 C 94.18 186.46 94.87 190.91 95.35 195.39 C 100.27 198.11 102.25 204.67 99.63 209.65 C 96.04 216.42 95.82 225.21 100.35 231.59 C 102.93 234.67 106.46 237.64 106.40 242.06 C 106.13 253.10 105.19 267.46 115.55 274.51 C 119.39 276.47 121.52 280.76 120.99 285.01 C 120.52 293.58 124.12 301.95 129.63 308.38 C 130.94 309.93 132.82 311.06 134.93 310.86 C 176.95 310.78 218.98 310.80 261.01 310.86 C 266.32 310.78 272.15 309.99 276.19 306.22 C 279.79 302.88 280.86 297.73 280.76 293.00 C 280.66 260.69 280.93 228.38 280.62 196.07 C 280.53 189.84 274.17 187.40 270.28 183.73 C 249.64 165.84 238.16 140.20 228.87 115.11 C 227.12 109.85 224.33 104.70 224.61 99.00 C 224.66 88.03 224.58 77.06 224.65 66.08 C 220.27 63.69 215.09 65.82 211.18 68.20 Z"/> </g> 
    </symbol>
    <symbol id="icon_search_icon" viewBox="0 0 30 30">
       <path fill="#2f2f2f" d=" M 7.13 3.23 C 12.68 -0.24 20.75 3.59 21.86 9.95 C 22.62 13.04 21.38 16.09 19.86 18.73 C 22.88 21.78 26.15 24.63 28.93 27.91 C 28.66 28.15 28.13 28.64 27.86 28.88 C 24.63 26.08 21.77 22.87 18.73 19.85 C 14.59 22.72 8.50 23.02 4.90 19.09 C 0.10 14.73 1.40 6.14 7.13 3.23 M 9.46 4.50 C 3.24 6.29 2.15 15.67 7.87 18.75 C 12.46 22.00 19.11 18.39 19.91 13.12 C 20.87 7.61 14.72 2.32 9.46 4.50 Z"/> 
    </symbol>
    <symbol id="icon_select_arrows" viewBox="0 0 8 19">
       <path fill="#90aa3c" fill-rule="evenodd" d="M 8 8 C 8 8 0 8 0 8 C 0 8 4 0 4 0 C 4 0 8 8 8 8 Z"/> <path fill="#90aa3c" fill-rule="evenodd" d="M 8 11 C 8 11 0 11 0 11 C 0 11 4 19 4 19"/> 
    </symbol></svg>