<?xml version="1.0" encoding="UTF-8" ?>
<!DOCTYPE svg PUBLIC "-//W3C//DTD SVG 1.1//EN" "http://www.w3.org/Graphics/SVG/1.1/DTD/svg11.dtd">
<svg width="400pt" height="364pt" viewBox="0 0 400 364" version="1.1" xmlns="http://www.w3.org/2000/svg">
<g id="#e4e9d6ff">
<path fill="#e4e9d6" opacity="1.00" d=" M 148.60 0.00 L 152.07 0.00 C 162.45 2.09 166.00 13.35 168.78 22.16 C 179.25 56.44 206.64 81.37 224.11 111.83 C 234.26 128.94 240.39 149.05 237.73 169.06 C 256.21 165.96 275.93 173.79 286.93 189.02 C 291.49 194.65 293.66 201.96 298.92 207.05 C 301.96 210.07 306.62 210.66 310.59 209.38 C 319.86 206.65 327.82 200.92 336.42 196.68 C 332.36 192.38 327.65 188.54 324.71 183.32 C 320.88 176.45 321.10 167.92 323.77 160.69 C 325.05 157.41 327.39 153.84 331.17 153.31 C 334.77 152.93 337.86 155.34 340.29 157.71 C 344.89 162.42 348.69 168.36 349.37 175.04 C 349.92 180.77 348.34 186.41 347.10 191.95 C 352.67 189.41 359.88 186.79 361.23 179.98 C 362.77 171.76 354.17 166.66 352.98 159.05 C 351.84 151.66 352.70 143.78 356.05 137.03 C 358.00 132.96 362.24 129.56 366.98 130.26 C 371.80 130.91 374.74 135.47 376.47 139.60 C 378.84 145.66 380.03 152.40 378.89 158.87 C 376.93 166.81 370.90 172.94 368.65 180.78 C 382.01 176.71 396.77 185.86 400.00 199.23 L 400.00 202.07 C 397.14 208.47 388.95 208.62 382.95 208.71 C 373.38 208.94 364.07 203.09 360.73 194.03 C 350.65 198.90 340.51 203.66 330.34 208.34 C 325.54 210.58 320.18 211.68 315.83 214.80 C 312.88 216.72 313.25 220.68 311.36 223.34 C 308.47 227.71 302.37 228.11 299.38 232.38 C 295.32 238.09 292.56 244.68 288.02 250.05 C 286.38 252.45 281.38 252.13 281.11 248.86 C 280.93 244.86 283.40 241.43 285.10 238.00 C 259.77 262.07 254.07 298.80 232.53 325.53 C 213.35 349.70 182.69 362.01 152.48 364.00 L 138.61 364.00 C 124.94 363.13 111.32 360.10 99.05 353.88 C 92.22 350.34 84.21 348.15 76.64 350.66 C 61.55 355.09 46.85 361.53 31.03 362.97 C 23.83 363.54 15.90 362.65 10.21 357.80 C 3.91 352.28 1.02 343.91 0.00 335.80 L 0.00 330.09 C 0.49 322.94 4.13 316.13 10.09 312.09 C 21.25 304.32 35.41 303.86 47.70 298.76 C 57.59 294.74 67.25 289.47 74.70 281.69 C 78.72 277.38 82.19 272.03 82.55 265.99 C 82.75 260.90 79.23 256.48 74.94 254.15 C 68.73 250.74 62.06 248.01 56.63 243.35 C 47.12 235.17 41.83 222.53 42.35 210.01 C 42.74 204.79 40.20 200.04 36.63 196.41 C 25.54 184.08 16.97 167.01 21.07 150.11 C 21.91 144.67 27.14 141.33 28.36 136.14 C 22.54 127.89 16.38 119.58 13.27 109.83 C 10.32 100.80 10.71 90.56 15.13 82.06 C 16.20 79.62 18.25 76.93 16.95 74.18 C 14.86 69.81 10.74 66.77 8.83 62.29 C 4.99 53.47 2.65 43.62 4.15 34.00 C 5.01 28.09 8.50 22.37 14.07 19.88 C 19.09 17.44 25.04 18.64 29.73 21.25 C 41.14 27.40 48.87 38.31 59.60 45.38 C 76.08 56.90 93.67 66.80 111.90 75.27 C 112.34 65.64 113.79 55.04 120.89 47.88 C 123.58 44.91 128.06 43.46 129.34 39.37 C 131.38 32.61 128.95 25.26 131.58 18.59 C 134.59 10.64 139.95 2.40 148.60 0.00 M 143.39 14.41 C 140.24 19.41 138.14 25.16 137.60 31.06 C 137.15 35.68 139.48 40.16 138.68 44.76 C 137.32 49.17 132.42 50.61 129.00 53.04 C 123.59 56.23 121.94 62.78 120.64 68.48 C 119.46 73.54 121.11 79.59 125.97 82.10 C 141.97 90.35 159.77 95.03 174.74 105.28 C 188.85 114.65 200.37 128.33 205.68 144.55 C 210.32 158.29 210.53 173.19 208.00 187.38 C 210.47 183.79 213.28 180.38 216.77 177.74 C 219.87 175.38 223.82 174.36 226.74 171.74 C 229.76 168.69 230.42 164.16 230.57 160.05 C 230.62 151.19 229.28 142.26 226.05 133.99 C 220.84 120.28 211.84 108.53 203.09 96.94 C 195.22 86.45 187.33 75.95 180.15 64.96 C 170.01 49.30 164.87 31.15 156.50 14.59 C 155.16 12.10 153.15 9.09 149.97 9.19 C 147.00 9.53 144.96 12.10 143.39 14.41 M 13.63 36.46 C 11.88 47.18 15.46 58.40 22.20 66.80 C 25.11 69.89 28.37 72.77 30.13 76.74 C 28.18 81.90 23.72 85.44 21.34 90.31 C 18.59 98.55 21.66 107.35 25.15 114.87 C 28.40 122.17 34.36 127.64 39.01 133.99 C 40.10 135.54 41.59 137.98 39.84 139.62 C 36.72 142.22 32.81 144.17 31.03 148.04 C 25.77 158.78 30.60 171.15 36.28 180.69 C 40.02 187.72 47.71 191.49 51.56 198.40 C 54.44 205.02 50.84 212.25 52.25 219.09 C 54.00 227.23 59.25 234.28 65.83 239.22 C 71.70 243.77 79.62 244.73 85.15 249.81 C 89.50 253.55 92.07 259.32 91.60 265.08 C 91.08 273.42 86.55 280.96 81.13 287.09 C 69.98 299.27 54.60 306.63 38.96 311.20 C 30.10 314.02 20.06 315.37 13.10 322.10 C 6.82 328.55 8.61 338.96 12.82 346.03 C 16.71 352.53 24.95 354.47 32.04 353.81 C 47.25 352.55 61.14 345.61 75.71 341.68 C 93.32 336.60 108.45 349.75 124.95 353.07 C 155.08 358.25 188.70 352.84 212.27 332.26 C 227.16 319.52 237.73 302.58 246.15 285.08 C 255.78 264.06 264.94 241.31 284.00 226.92 C 289.46 222.22 296.85 221.70 303.49 219.79 C 299.66 217.50 295.44 215.85 291.84 213.21 C 285.17 206.63 283.61 196.63 277.16 189.88 C 265.65 177.95 246.67 174.91 231.35 180.37 C 221.26 184.09 214.65 193.02 208.05 201.01 C 204.87 204.45 200.89 208.08 195.97 208.29 C 192.90 208.12 192.94 204.33 193.49 202.13 C 195.26 195.00 198.32 188.25 200.02 181.09 C 204.82 163.27 200.25 143.53 189.06 129.00 C 181.31 118.91 170.73 111.40 159.56 105.51 C 140.25 95.31 119.01 89.44 99.56 79.52 C 74.50 66.56 51.65 49.83 29.46 32.50 C 26.51 30.30 23.05 27.69 19.14 28.46 C 15.67 29.40 14.24 33.27 13.63 36.46 M 365.46 139.49 C 361.05 141.22 360.52 146.87 360.01 150.96 C 359.88 156.13 359.88 162.26 363.77 166.19 C 366.34 168.59 369.44 165.71 370.09 163.04 C 372.22 156.76 372.51 149.69 370.48 143.35 C 369.80 141.26 367.96 138.75 365.46 139.49 M 331.33 162.46 C 327.56 170.41 330.22 180.63 335.83 187.17 C 337.09 188.94 340.49 190.14 341.27 187.30 C 343.66 179.24 342.26 169.85 336.46 163.52 C 335.21 162.14 332.94 160.91 331.33 162.46 M 367.78 190.11 C 370.70 200.49 383.80 204.11 392.86 199.59 C 389.06 189.93 377.02 185.81 367.78 190.11 Z" />
<path fill="#e4e9d6" opacity="1.00" d=" M 243.28 201.38 C 246.37 200.27 250.33 200.89 252.43 203.58 C 255.34 207.19 254.83 213.20 251.07 216.04 C 247.84 218.33 242.73 217.99 240.22 214.78 C 236.87 210.70 238.09 203.29 243.28 201.38 Z" />
</g>
</svg>
