<?xml version="1.0" encoding="UTF-8" ?>
<!DOCTYPE svg PUBLIC "-//W3C//DTD SVG 1.1//EN" "http://www.w3.org/Graphics/SVG/1.1/DTD/svg11.dtd">
<svg width="400pt" height="400pt" viewBox="0 0 400 400" version="1.1" xmlns="http://www.w3.org/2000/svg">
<g id="#e6ebd8ff">
<path fill="#e6ebd8" opacity="1.00" d=" M 191.66 0.00 L 208.00 0.00 C 247.76 1.74 287.02 15.20 318.91 39.10 C 357.50 67.59 385.49 110.23 395.48 157.22 C 397.97 168.26 399.10 179.54 400.00 190.81 L 400.00 208.72 C 398.20 244.62 387.10 280.11 367.12 310.06 C 346.89 340.62 318.25 365.60 285.06 381.17 C 261.35 392.46 235.36 398.45 209.20 400.00 L 191.27 400.00 C 155.37 398.20 119.89 387.10 89.94 367.12 C 59.39 346.89 34.40 318.26 18.84 285.07 C 7.53 261.32 1.54 235.27 0.00 209.07 L 0.00 191.44 C 1.03 175.16 3.40 158.91 8.10 143.25 C 21.10 98.53 50.61 59.05 89.34 33.30 C 119.52 12.99 155.39 1.73 191.66 0.00 M 181.46 19.66 C 141.28 23.56 102.70 41.61 73.86 69.85 C 50.07 92.79 32.68 122.35 24.49 154.39 C 14.16 194.24 17.75 237.61 34.90 275.07 C 58.52 327.50 108.38 367.30 165.00 377.93 C 201.58 385.07 240.38 380.80 274.37 365.43 C 307.87 350.39 336.48 324.83 355.44 293.41 C 388.90 238.90 389.87 166.44 358.00 111.00 C 339.84 78.87 311.71 52.44 278.42 36.48 C 248.49 22.01 214.51 16.29 181.46 19.66 Z" />
<path fill="#e6ebd8" opacity="1.00" d=" M 166.61 47.57 C 176.72 42.37 189.25 44.62 198.64 50.36 C 212.56 59.14 221.48 74.24 225.24 90.01 C 229.63 107.15 228.60 125.19 225.06 142.38 C 241.04 142.47 257.02 142.50 272.99 142.35 C 290.44 141.44 308.36 149.01 319.50 162.52 C 329.79 174.99 327.34 193.00 321.71 206.95 C 324.54 219.59 324.16 234.01 315.64 244.54 C 313.14 246.68 314.35 250.13 314.06 252.98 C 313.83 266.21 309.78 280.26 299.43 289.16 C 298.41 301.34 293.60 313.26 285.30 322.30 C 280.70 327.53 274.07 331.26 266.98 331.24 C 225.32 331.26 183.66 331.22 142.00 331.32 C 130.86 331.52 119.02 329.06 110.50 321.46 C 102.43 314.45 98.81 303.48 99.05 293.00 C 99.12 259.00 98.90 224.99 99.16 191.00 C 99.42 181.57 107.45 175.56 114.10 170.17 C 132.54 155.42 142.40 133.14 150.60 111.62 C 152.21 106.48 155.17 101.56 154.98 96.02 C 154.98 85.34 154.95 74.67 154.90 63.99 C 154.68 56.62 160.69 50.95 166.61 47.57 M 175.36 66.06 C 175.41 77.04 175.35 88.02 175.39 99.00 C 175.68 104.44 173.09 109.38 171.40 114.39 C 161.22 142.09 148.18 170.85 123.52 188.61 C 120.42 190.61 119.19 194.39 119.27 197.93 C 119.22 229.62 119.28 261.32 119.24 293.01 C 119.16 297.73 120.21 302.88 123.82 306.22 C 127.86 309.98 133.66 310.79 138.96 310.86 C 181.01 310.80 223.06 310.78 265.11 310.86 C 266.92 310.98 268.66 310.23 269.87 308.90 C 276.34 301.96 279.78 292.37 279.06 282.89 C 278.76 276.62 285.54 274.82 288.71 270.69 C 294.44 262.35 293.90 251.67 293.61 242.02 C 293.53 235.89 300.15 233.15 301.73 227.69 C 304.09 221.82 303.21 215.15 300.36 209.62 C 297.76 204.63 299.77 198.12 304.66 195.37 C 305.15 190.90 305.82 186.44 306.12 181.95 C 306.32 177.73 303.07 174.42 300.16 171.81 C 293.39 166.28 284.86 162.51 276.00 162.69 C 254.65 162.84 233.30 162.91 211.95 162.72 C 207.93 162.63 203.97 160.04 202.70 156.15 C 201.26 152.35 202.82 148.39 203.69 144.67 C 207.77 128.32 209.50 110.93 205.39 94.41 C 202.92 84.48 197.82 74.75 189.43 68.61 C 185.41 65.98 180.00 63.63 175.36 66.06 Z" />
</g>
</svg>
