<?xml version="1.0" standalone="no"?>
<!DOCTYPE svg PUBLIC "-//W3C//DTD SVG 20010904//EN"
 "http://www.w3.org/TR/2001/REC-SVG-20010904/DTD/svg10.dtd">
<svg version="1.0" xmlns="http://www.w3.org/2000/svg"
 width="388.000000pt" height="388.000000pt" viewBox="0 0 388.000000 388.000000"
 preserveAspectRatio="xMidYMid meet">
<metadata>
Created by potrace 1.11, written by Peter Selinger 2001-2013
</metadata>
<g transform="translate(0.000000,388.000000) scale(0.100000,-0.100000)"
fill="#000000" stroke="none">
<path d="M1494 3871 c4 -6 -3 -16 -16 -22 -13 -6 -34 -25 -48 -42 -14 -17 -20
-28 -13 -24 8 5 8 1 0 -17 -7 -13 -15 -22 -19 -20 -5 3 -4 -6 2 -20 6 -17 6
-26 -3 -30 -9 -3 -9 -5 1 -5 6 -1 12 -12 12 -25 0 -14 5 -28 10 -31 6 -4 8
-11 5 -16 -4 -5 -1 -9 5 -9 6 0 15 -10 20 -22 5 -13 9 -17 9 -9 1 8 11 3 26
-15 16 -19 25 -24 25 -14 0 13 1 13 10 0 11 -17 59 -21 79 -6 11 8 13 8 7 -1
-5 -9 -2 -11 8 -7 9 3 16 10 16 16 0 5 4 7 9 3 5 -3 17 2 25 11 9 8 16 12 16
7 0 -4 8 4 18 20 10 15 21 25 23 23 3 -3 6 4 6 16 1 12 6 24 10 27 11 8 15 91
5 91 -4 0 -9 10 -9 22 -1 13 -7 24 -13 26 -5 2 -10 10 -10 18 0 8 -4 14 -8 14
-5 0 -17 8 -28 18 -25 21 -36 25 -103 30 -40 3 -52 1 -46 -8 6 -9 2 -9 -15 0
-15 8 -20 8 -16 1z"/>
<path d="M2160 3868 c0 -5 -4 -6 -10 -3 -5 3 -10 1 -10 -6 0 -7 -3 -10 -6 -6
-8 7 -20 -4 -59 -57 -17 -22 -23 -36 -15 -31 12 7 13 6 3 -7 -7 -8 -10 -18 -6
-21 3 -4 1 -7 -6 -7 -9 0 -9 -5 -1 -20 8 -15 8 -20 -1 -20 -8 0 -9 -4 0 -13 6
-8 8 -17 4 -20 -3 -4 -1 -7 6 -7 7 0 10 -4 7 -8 -3 -5 13 -28 35 -51 21 -24
39 -40 39 -36 0 4 7 2 15 -5 8 -6 19 -9 25 -5 5 3 10 2 10 -3 0 -5 20 -8 44
-8 24 1 42 4 39 9 -2 4 2 7 10 7 8 0 26 11 40 24 14 13 28 21 31 18 3 -3 6 2
6 12 0 9 6 19 14 22 8 3 13 14 11 25 -2 10 -1 19 3 19 9 0 8 67 -1 76 -4 4 -1
14 6 22 10 13 9 14 -1 8 -7 -4 -15 0 -19 11 -3 10 -12 22 -20 26 -7 4 -13 15
-13 23 0 8 -4 12 -10 9 -5 -3 -10 -1 -10 5 0 7 -7 9 -16 6 -11 -4 -15 -2 -11
7 4 11 -11 14 -64 14 -38 1 -69 -3 -69 -9z"/>
<path d="M1510 3439 c0 -6 -9 -8 -21 -4 -16 6 -20 4 -13 -6 6 -11 4 -11 -10 0
-15 12 -17 12 -14 0 2 -8 -3 -13 -9 -11 -7 1 -13 -3 -13 -9 0 -5 -4 -8 -9 -4
-5 3 -16 -4 -24 -15 -7 -11 -16 -18 -18 -15 -9 9 -71 -97 -65 -111 3 -9 1 -12
-4 -9 -7 4 -9 -3 -6 -19 3 -14 1 -26 -3 -26 -3 0 -7 -9 -7 -19 0 -11 4 -17 8
-15 12 7 10 -14 -3 -38 -8 -15 -8 -19 0 -14 12 8 15 -6 4 -18 -10 -10 -12 -56
-1 -50 11 7 10 -13 -3 -38 -8 -15 -8 -19 0 -14 12 8 15 -6 4 -18 -10 -10 -12
-56 -1 -50 11 7 10 -13 -3 -38 -8 -15 -8 -19 0 -14 12 8 15 -6 4 -18 -10 -10
-12 -56 -1 -50 11 7 10 -13 -3 -38 -8 -15 -8 -19 0 -14 12 8 15 -6 4 -18 -10
-10 -12 -56 -1 -50 11 7 10 -13 -3 -38 -8 -15 -8 -19 0 -14 6 4 11 3 11 -3 0
-5 -5 -13 -11 -16 -7 -5 -4 -14 8 -28 10 -11 13 -17 7 -14 -7 4 -14 0 -18 -8
-3 -8 -1 -15 5 -15 6 0 7 -6 2 -12 -10 -18 -12 -58 -1 -52 11 7 10 -13 -3 -38
-8 -15 -8 -19 0 -14 12 8 15 -6 4 -18 -10 -10 -12 -56 -1 -50 11 7 10 -13 -3
-38 -8 -15 -8 -19 0 -14 12 8 15 -6 4 -18 -10 -10 -12 -56 -1 -50 11 7 10 -13
-3 -38 -8 -15 -8 -19 0 -14 12 8 15 -6 4 -18 -10 -10 -12 -56 -1 -50 11 7 10
-13 -3 -38 -8 -15 -8 -19 0 -14 12 8 15 -6 4 -18 -10 -10 -12 -56 -1 -50 11 7
10 -13 -3 -38 -8 -15 -8 -19 0 -14 12 8 15 -6 4 -18 -10 -10 -12 -56 -1 -50
11 7 10 -13 -3 -38 -8 -15 -8 -19 0 -14 12 8 15 -6 4 -18 -10 -10 -12 -56 -1
-50 11 7 10 -13 -3 -38 -8 -15 -8 -19 0 -14 12 8 15 -6 4 -18 -10 -10 -12 -56
-1 -50 11 7 10 -13 -3 -38 -8 -15 -8 -19 0 -14 12 8 15 -6 4 -18 -10 -10 -12
-56 -1 -50 11 7 10 -13 -3 -38 -7 -13 -7 -18 -1 -14 6 4 10 -2 9 -14 -1 -11
-6 -20 -11 -20 -6 0 -5 -5 2 -12 9 -9 6 -19 -16 -42 -15 -16 -21 -26 -14 -22
6 4 12 3 12 -2 0 -6 -7 -13 -16 -16 -9 -4 -14 -13 -10 -21 3 -8 1 -15 -4 -15
-6 0 -10 -7 -10 -15 0 -8 -9 -24 -19 -34 -11 -11 -17 -22 -13 -25 3 -3 0 -6
-7 -6 -7 0 -10 -4 -7 -9 9 -15 45 -1 51 20 4 11 11 16 18 13 7 -4 9 -4 5 1 -8
9 19 63 42 83 13 12 13 13 0 6 -8 -4 -4 4 10 17 15 15 35 24 50 23 13 -2 27 2
31 7 4 7 12 4 22 -5 9 -9 18 -12 21 -7 7 10 46 9 47 -2 0 -4 -5 -15 -10 -25
-6 -9 -11 -12 -11 -5 0 9 -13 7 -44 -7 -24 -10 -47 -16 -50 -13 -3 4 -6 0 -6
-7 0 -7 -3 -10 -7 -7 -3 4 -17 -5 -30 -19 -12 -14 -23 -21 -23 -17 0 18 -20
-23 -20 -42 0 -15 3 -17 9 -7 4 8 12 14 17 15 5 1 8 6 6 10 -1 5 2 6 7 3 5 -4
14 1 18 9 9 15 73 30 73 16 0 -3 -7 -17 -16 -29 -8 -12 -12 -22 -7 -22 4 -1
-12 -10 -37 -22 -25 -11 -45 -19 -45 -18 0 2 -13 -9 -30 -24 -16 -16 -29 -32
-27 -37 1 -5 -4 -8 -10 -7 -7 2 -14 -7 -16 -20 -2 -12 -8 -20 -13 -17 -5 4 -6
-2 -2 -11 4 -10 8 -13 10 -7 3 7 12 9 21 6 15 -6 16 -5 2 13 -8 10 -10 16 -6
12 5 -4 22 6 38 22 15 16 28 27 28 24 0 -4 6 -1 13 5 8 6 17 8 20 4 4 -3 7 -1
7 6 0 7 4 10 9 6 5 -3 17 2 25 11 9 8 16 12 16 8 0 -3 6 -1 14 5 12 10 14 7
12 -18 -2 -32 -45 -101 -61 -98 -5 1 -9 -3 -8 -10 2 -6 -6 -15 -17 -18 -11 -4
-18 -11 -15 -16 4 -5 -1 -9 -9 -9 -23 0 -28 -17 -6 -23 12 -3 31 6 52 24 18
16 38 33 44 38 7 5 15 7 20 3 4 -4 5 0 2 8 -5 15 15 43 24 34 5 -4 6 1 11 67
2 25 7 50 10 56 4 6 1 14 -5 16 -10 4 -10 6 -1 6 7 1 10 7 7 14 -3 8 12 28 32
45 29 25 40 29 51 21 9 -8 10 -15 3 -24 -8 -9 -7 -15 2 -18 8 -4 7 -6 -4 -6
-10 -1 -18 -8 -18 -16 0 -8 -7 -15 -16 -15 -8 0 -12 -4 -9 -10 3 -5 1 -10 -5
-10 -7 0 -10 -6 -7 -12 2 -7 -3 -18 -12 -25 -14 -11 -14 -13 -1 -13 10 -1 9
-4 -5 -10 -17 -8 -15 -9 10 -7 22 1 29 6 27 20 -2 9 2 17 8 17 6 0 8 5 5 10
-3 6 -1 10 5 10 6 0 9 4 6 9 -4 5 2 8 11 6 10 -1 17 -10 17 -19 -1 -9 2 -16 8
-16 5 0 6 -6 1 -12 -4 -7 -9 -21 -10 -31 -4 -26 -44 -77 -60 -77 -8 0 -11 -5
-7 -12 5 -7 3 -8 -5 -4 -7 5 -21 0 -32 -10 -10 -9 -19 -13 -19 -9 0 4 -11 -4
-24 -18 -13 -14 -26 -24 -29 -21 -3 3 -11 -8 -18 -25 -7 -16 -16 -28 -19 -26
-9 6 -6 -28 5 -44 5 -10 4 -12 -3 -7 -7 4 -12 2 -12 -4 0 -6 8 -10 18 -8 9 2
16 11 16 21 -1 9 2 17 8 17 5 0 6 4 3 10 -9 14 67 82 79 70 5 -5 2 -19 -9 -36
-9 -14 -12 -23 -6 -19 9 5 11 -7 9 -43 -4 -45 -2 -50 17 -50 13 0 21 7 21 19
0 9 -4 15 -8 13 -4 -3 -8 2 -8 11 0 9 4 14 8 11 5 -3 9 1 9 9 0 8 -7 15 -16
15 -13 0 -14 2 -2 9 8 5 15 21 17 35 3 26 32 59 87 100 14 11 24 23 21 27 -2
4 0 10 5 14 5 3 8 14 6 25 -2 11 1 20 6 20 6 0 7 4 4 10 -3 5 -3 10 1 10 11 0
33 -34 34 -52 0 -10 6 -18 13 -18 8 0 7 -4 -3 -10 -8 -5 -10 -10 -5 -10 6 0 3
-5 -5 -10 -13 -9 -13 -10 0 -10 10 0 11 -3 3 -8 -6 -4 -13 -14 -15 -22 -2 -7
-21 -32 -43 -54 -22 -22 -39 -44 -37 -49 1 -5 -2 -6 -8 -2 -5 3 -13 -2 -17
-12 -4 -10 -11 -21 -17 -25 -7 -5 -5 -8 4 -8 13 0 13 -1 0 -10 -12 -8 -11 -10
8 -10 16 0 22 6 22 21 0 11 4 18 9 14 5 -3 12 4 16 15 3 11 11 20 16 20 15 0
89 82 83 91 -3 5 -1 9 5 9 6 0 8 7 5 15 -4 8 -1 15 5 15 6 0 8 6 5 14 -7 18
15 31 29 17 14 -14 11 -83 -5 -93 -7 -4 -8 -8 -3 -8 6 0 4 -4 -3 -9 -7 -4 -14
-17 -15 -28 -1 -14 -6 -19 -17 -15 -8 3 -12 2 -8 -3 4 -4 -4 -27 -17 -51 -16
-28 -20 -44 -12 -44 8 0 7 -4 -3 -10 -12 -8 -12 -10 -1 -10 11 0 9 -5 -5 -22
-10 -12 -14 -19 -9 -15 6 3 17 2 25 -4 11 -6 12 -9 2 -9 -7 0 -10 -5 -7 -10 3
-6 0 -10 -7 -10 -9 0 -9 -3 2 -10 17 -11 60 -13 45 -2 -11 8 -15 22 -16 55 -1
42 13 75 65 152 22 33 39 61 38 63 -1 1 -2 10 -2 20 1 14 3 14 19 -5 11 -13
18 -36 17 -52 -1 -16 2 -28 6 -25 4 3 8 0 8 -5 0 -6 -5 -11 -11 -11 -5 0 -7
-5 -4 -10 4 -6 12 -7 18 -4 7 4 1 -4 -12 -16 -14 -14 -19 -26 -13 -28 6 -2 3
-11 -9 -23 -11 -11 -17 -24 -14 -29 4 -6 1 -10 -6 -10 -7 0 -10 -3 -6 -6 3 -4
0 -19 -8 -33 -9 -18 -10 -32 -4 -42 7 -12 9 -12 9 0 0 8 3 11 7 8 6 -7 33 42
39 73 2 8 8 16 14 18 5 2 8 8 4 13 -3 5 0 9 6 9 6 0 8 5 5 10 -3 6 -3 16 2 23
11 17 15 38 13 67 -1 14 -3 35 -3 48 -1 12 -4 22 -8 22 -4 0 -12 13 -19 29 -6
16 -18 32 -27 35 -8 3 -11 11 -7 17 4 8 3 9 -4 5 -7 -4 -22 3 -35 16 -13 13
-35 31 -50 41 -15 9 -27 24 -27 31 0 8 -7 17 -16 20 -8 3 -12 11 -9 16 4 6 2
16 -3 23 -16 21 -20 64 -5 64 7 0 15 -9 19 -19 3 -10 10 -18 16 -18 5 0 8 -6
5 -13 -3 -7 4 -19 14 -25 10 -7 19 -19 19 -27 0 -8 7 -15 15 -15 8 0 20 -9 27
-19 6 -10 18 -17 25 -14 7 3 13 1 13 -4 0 -5 6 -10 13 -11 6 0 21 -3 32 -6 11
-2 23 -5 26 -5 12 -2 64 -51 54 -51 -5 0 -3 -5 5 -10 8 -5 10 -10 4 -10 -10 0
-14 -13 -15 -53 0 -10 -6 -20 -12 -23 -10 -3 -13 -35 -8 -86 1 -5 8 -8 17 -8
14 0 14 3 4 15 -11 13 -10 14 5 9 13 -5 16 -4 11 4 -12 19 -16 53 -5 47 5 -4
9 -1 9 4 0 6 4 11 8 11 5 0 10 -21 11 -47 0 -25 7 -53 14 -62 9 -12 9 -13 -1
-7 -9 5 -11 1 -8 -16 3 -13 5 -27 5 -31 1 -5 5 -6 9 -3 4 2 8 -5 7 -17 0 -12
4 -23 9 -24 5 -1 13 -7 17 -15 7 -10 9 -10 9 3 0 8 -6 21 -12 28 -10 11 -10
13 0 7 6 -4 12 -2 12 3 0 6 -4 11 -9 11 -5 0 -9 6 -8 12 2 52 -4 79 -15 72 -7
-4 -4 2 7 13 13 14 22 16 27 9 4 -6 8 -7 8 -3 0 5 7 1 16 -7 16 -17 34 -21 34
-8 -1 13 -26 41 -40 44 -19 4 -48 31 -43 40 2 5 0 8 -5 8 -5 0 -8 12 -8 27 1
16 -4 35 -11 43 -10 13 -9 16 7 16 11 0 24 -11 31 -26 6 -14 14 -31 18 -39 11
-22 37 -21 37 0 0 11 -4 19 -9 19 -5 0 -7 5 -5 12 5 13 -52 82 -60 74 -2 -3
-15 7 -28 21 -13 14 -24 20 -24 14 0 -7 -5 -9 -10 -6 -6 4 -8 11 -5 16 3 5 -1
6 -10 3 -8 -4 -22 -1 -30 6 -11 9 -15 10 -15 1 0 -8 -6 -6 -16 4 -9 9 -22 14
-29 11 -7 -2 -21 6 -31 19 -10 13 -22 21 -27 18 -6 -3 -7 -1 -3 5 9 14 87 4
98 -12 5 -7 8 -6 8 4 0 13 2 13 9 1 5 -8 16 -11 24 -8 8 3 25 -2 38 -10 12 -9
19 -11 15 -5 -5 8 -2 10 8 6 9 -3 16 -10 16 -15 0 -5 5 -9 11 -9 5 0 7 6 3 13
-5 10 35 -33 76 -81 6 -7 8 -17 4 -24 -4 -7 -3 -8 4 -4 7 4 12 2 12 -3 0 -22
1 -27 16 -50 9 -12 14 -31 11 -42 -3 -10 0 -20 7 -23 8 -3 8 -5 -1 -5 -8 -1
-9 -10 -3 -31 5 -17 10 -34 11 -38 9 -35 33 -65 55 -68 15 -2 8 23 -14 49 -8
9 -11 17 -6 17 5 0 0 7 -10 15 -11 8 -14 15 -8 15 16 0 15 27 0 33 -10 4 -10
6 -1 6 7 1 10 7 7 15 -7 18 17 15 42 -4 11 -9 15 -10 10 -2 -9 15 6 16 22 0 7
-7 12 -8 12 -2 0 5 5 2 10 -6 8 -13 10 -13 10 0 0 9 6 7 16 -8 9 -13 22 -21
30 -18 8 3 13 0 11 -6 -1 -7 7 -14 18 -16 17 -4 18 -2 6 12 -7 9 -10 16 -5 16
5 0 -8 12 -29 26 -21 14 -45 23 -53 20 -8 -3 -14 1 -14 9 0 18 -12 19 -29 2
-11 -10 -13 -9 -7 1 5 7 -2 16 -19 22 -16 6 -23 14 -19 22 4 6 3 8 -3 5 -10
-6 -43 26 -43 43 0 6 -4 10 -10 10 -5 0 -7 6 -4 13 3 8 11 14 19 14 8 0 12 -4
10 -8 -3 -3 5 -9 17 -12 12 -4 19 -9 15 -13 -4 -4 7 -17 23 -29 16 -12 28 -24
25 -26 -2 -3 4 -5 13 -6 9 -1 24 -3 32 -5 8 -2 14 2 13 8 -1 7 7 10 20 7 20
-4 20 -3 -3 11 -14 8 -27 11 -30 6 -3 -5 -13 -3 -22 4 -10 7 -15 16 -11 19 3
4 -1 7 -10 7 -9 0 -17 4 -17 10 0 14 -50 61 -60 55 -5 -3 -11 -1 -15 5 -3 5
-1 10 5 10 6 0 9 3 7 8 -3 4 6 8 19 8 13 1 24 -2 24 -6 0 -4 8 -11 17 -14 10
-4 14 -4 10 0 -13 14 37 31 56 20 9 -6 17 -14 17 -17 0 -11 60 -72 61 -63 0 5
4 0 9 -12 5 -13 22 -24 42 -29 18 -4 38 -9 44 -10 6 -2 9 7 6 20 -2 15 -9 22
-18 18 -8 -3 -14 0 -14 7 0 6 -4 8 -10 5 -5 -3 -23 7 -39 24 -16 16 -32 28
-35 25 -3 -2 -4 -1 -1 3 3 3 1 11 -5 17 -6 9 0 12 21 11 16 0 29 -3 29 -8 0
-4 12 -7 28 -7 44 0 62 -3 62 -12 0 -4 7 -8 16 -8 9 0 12 -5 8 -12 -4 -7 -3
-8 4 -4 7 4 12 2 12 -3 0 -6 4 -11 8 -11 14 0 11 42 -4 57 -9 10 -14 10 -14 3
0 -7 -9 -2 -21 11 -11 13 -17 17 -13 9 7 -13 5 -13 -9 -2 -9 8 -32 14 -52 15
-19 1 -35 5 -35 10 0 5 -6 4 -14 -2 -8 -7 -16 -8 -18 -2 -1 5 -12 11 -23 13
-11 1 -27 11 -36 21 -9 9 -21 17 -28 17 -6 0 -11 5 -11 10 0 6 -6 10 -14 10
-8 0 -17 7 -20 16 -3 8 -10 12 -16 9 -5 -3 -10 -1 -10 4 0 6 -3 10 -7 10 -21
-3 -34 2 -28 12 7 10 55 9 65 -1 10 -10 65 -41 83 -47 9 -3 17 -9 17 -14 0 -5
9 -9 19 -9 11 0 23 -5 26 -10 4 -6 12 -7 18 -3 18 11 36 12 43 2 3 -5 10 -6
17 -2 16 10 91 10 98 1 10 -15 46 -17 46 -3 0 8 -4 12 -9 9 -4 -3 -8 3 -8 13
0 14 -2 15 -9 4 -6 -9 -10 -10 -12 -2 -3 7 -14 13 -27 14 -12 0 -22 4 -22 8 0
6 -22 5 -92 -5 -16 -2 -28 -1 -28 4 0 4 -8 6 -17 4 -10 -3 -30 7 -47 22 -26
24 -27 28 -11 37 12 6 20 6 25 -3 5 -9 9 -9 11 -1 6 17 159 16 170 -1 6 -9 9
-10 9 -1 0 7 7 10 15 7 8 -4 13 -10 10 -14 -3 -5 4 -6 15 -3 11 3 20 1 20 -4
0 -5 12 -15 26 -21 20 -10 24 -10 18 0 -6 10 -5 11 8 1 17 -15 28 -7 28 20 0
14 -3 17 -12 9 -22 -18 -67 27 -70 71 -2 20 -6 37 -10 37 -5 0 -8 9 -8 21 0
11 -4 17 -10 14 -5 -3 -10 -2 -10 3 0 26 -86 92 -120 92 -11 0 -20 6 -20 13 0
8 -4 7 -10 -3 -8 -12 -10 -12 -10 -1 0 11 -3 11 -17 0 -14 -12 -15 -12 -9 -1
7 11 4 12 -13 3 -16 -9 -21 -9 -21 1 0 9 -3 9 -11 1 -7 -7 -21 -8 -40 -3 -17
5 -31 5 -35 -1 -4 -6 -11 -6 -19 1 -10 8 -15 8 -20 0 -5 -8 -10 -8 -20 0 -10
8 -15 8 -20 0 -5 -8 -10 -8 -20 0 -10 8 -15 8 -20 0 -5 -8 -10 -8 -20 0 -10 8
-15 8 -20 0 -5 -8 -10 -8 -20 0 -10 8 -15 8 -20 0 -5 -8 -10 -8 -20 0 -10 8
-15 8 -20 0 -5 -8 -10 -8 -20 0 -9 7 -15 8 -19 1 -4 -6 -15 -7 -30 -1 -12 4
-29 4 -36 0 -9 -5 -20 -4 -27 2 -9 7 -13 7 -13 -2 0 -10 -3 -10 -15 0 -10 8
-15 9 -15 1 0 -6 -8 -4 -19 6 -15 12 -17 21 -10 35 7 12 6 18 -1 18 -6 0 -8 5
-5 10 11 18 13 80 3 80 -6 0 -5 7 3 16 10 13 10 17 0 24 -11 6 -11 9 0 13 10
4 10 6 2 6 -7 1 -13 6 -13 12 0 5 4 8 8 5 4 -2 8 4 8 15 0 10 -4 19 -8 19 -5
0 -4 10 3 21 8 16 8 23 -1 29 -9 6 -9 9 1 13 12 5 12 6 0 6 -11 1 -11 4 0 18
12 15 12 16 -1 8 -13 -8 -13 -7 -1 8 9 12 10 17 2 17 -9 0 -9 5 0 21 8 17 8
23 -2 30 -10 6 -10 11 -1 22 7 7 9 16 6 20 -3 3 4 10 15 16 18 10 20 9 14 -6
-6 -16 -4 -16 9 -5 18 14 49 13 60 -3 4 -6 8 -2 8 9 0 14 3 16 13 7 10 -8 17
-7 27 2 8 8 11 8 7 1 -4 -7 0 -15 9 -18 9 -3 12 -2 8 5 -8 14 38 8 48 -6 4 -6
8 -2 8 8 0 12 4 16 13 10 6 -4 20 -6 31 -4 13 2 16 -1 10 -11 -4 -7 3 -4 16 7
13 11 21 16 18 10 -4 -6 21 -10 67 -10 40 0 72 2 70 6 -2 3 2 6 10 6 8 0 12
-5 8 -10 -3 -5 4 -4 14 2 11 6 23 7 27 4 3 -3 6 -1 6 6 0 7 4 10 9 7 5 -3 14
1 21 9 7 8 18 15 26 15 7 0 16 9 19 21 4 11 9 18 13 15 7 -8 43 52 45 75 1 11
4 19 8 19 4 0 6 25 6 55 -1 30 -4 55 -7 55 -3 0 -7 10 -7 22 -1 13 -7 24 -13
26 -5 2 -10 9 -10 16 0 6 -9 18 -19 26 -11 7 -17 18 -14 23 3 6 1 7 -6 3 -6
-4 -14 0 -17 8 -3 9 -10 14 -14 11 -5 -3 -14 1 -22 8 -7 8 -19 12 -27 9 -8 -3
-11 0 -7 7 4 7 2 9 -8 5 -8 -3 -24 0 -36 6 -13 7 -20 8 -17 3 7 -11 -96 -8
-114 3 -7 4 -9 3 -6 -3 7 -11 -95 -9 -114 3 -7 4 -9 3 -6 -3 7 -11 -95 -9
-114 3 -7 4 -9 3 -6 -2 3 -6 -13 -10 -38 -9 -24 0 -41 3 -39 7 2 4 -1 10 -7
14 -8 4 -7 9 2 15 12 8 12 10 0 18 -11 7 -11 9 0 14 10 4 10 6 2 6 -7 1 -13 6
-13 12 0 5 4 8 8 5 4 -2 8 4 8 15 0 10 -4 19 -8 19 -5 0 -4 10 3 21 8 16 8 23
-1 29 -9 5 -9 9 -1 14 6 4 11 13 11 19 0 7 -4 6 -10 -3 -13 -20 -13 -4 0 21 8
13 7 19 0 19 -7 0 -7 7 1 21 8 17 8 23 -1 29 -8 5 -9 13 -4 21 12 20 14 39 3
39 -5 0 -4 12 1 26 6 14 8 30 5 35 -4 5 0 7 7 4 34 -12 68 -13 68 -2 0 8 3 8
9 -1 4 -8 12 -14 16 -14 4 0 12 6 16 14 5 7 9 8 9 3 0 -6 9 -11 20 -12 13 -1
18 2 14 9 -5 7 -2 8 5 3 19 -11 161 -13 154 -1 -4 5 -1 6 6 1 20 -12 170 -12
164 0 -3 5 0 4 8 -2 16 -16 33 -17 23 -1 -5 7 -3 8 5 3 18 -10 81 -12 81 -2 0
5 7 7 15 3 8 -3 15 -1 15 4 0 5 7 6 17 3 12 -5 14 -3 8 7 -6 10 -3 12 13 8 13
-4 20 -2 19 6 -1 6 4 10 11 9 6 -2 12 2 12 7 0 6 11 22 25 36 14 14 23 30 20
35 -4 5 -1 9 5 9 6 0 9 4 6 9 -4 5 -2 11 2 13 5 1 12 20 15 41 3 20 3 36 -1
33 -4 -2 -7 16 -6 39 0 24 -3 42 -8 39 -7 -5 -12 18 -9 39 0 4 -5 7 -12 7 -6
0 -25 16 -40 35 -15 19 -35 35 -43 35 -8 0 -13 4 -9 9 3 6 -3 10 -12 10 -61 2
-83 6 -83 13 0 5 -9 4 -20 -2 -15 -8 -20 -8 -20 2 0 8 -3 9 -8 3 -9 -13 -42
-16 -42 -4 0 6 -9 5 -20 -1 -15 -8 -20 -8 -20 2 0 9 -3 9 -10 -2 -9 -13 -11
-13 -20 0 -7 11 -10 11 -10 2 0 -8 -6 -10 -17 -5 -16 7 -48 9 -63 3 -22 -8
-40 -6 -40 3 0 7 -5 6 -10 -3 -9 -13 -11 -13 -20 0 -7 11 -10 11 -10 2 0 -8
-6 -10 -17 -5 -23 10 -54 10 -72 -1 -8 -5 -17 -3 -22 5 -7 12 -9 12 -9 0 0
-10 -3 -11 -13 -2 -10 8 -17 7 -25 -1 -9 -9 -12 -9 -12 1 0 11 -3 11 -15 1
-12 -10 -15 -10 -15 1 0 11 -2 11 -10 -1 -9 -13 -11 -13 -20 0 -7 11 -10 11
-10 2 0 -8 -6 -10 -17 -5 -23 10 -54 10 -72 -1 -8 -5 -17 -3 -22 5 -7 12 -9
12 -9 0 0 -10 -3 -11 -14 -2 -11 9 -16 9 -21 0 -6 -8 -10 -7 -16 2 -7 11 -9
11 -9 -1 0 -13 -1 -13 -10 0 -8 12 -10 12 -10 1 0 -11 -3 -11 -15 -1 -12 10
-15 10 -15 -1 0 -10 -3 -10 -12 -1 -15 15 -28 15 -28 1z m505 -2075 c11 0 36
-6 55 -12 19 -7 40 -12 45 -13 6 0 19 -8 29 -17 15 -13 17 -13 11 -2 -8 13 -7
13 11 0 10 -8 22 -19 26 -25 4 -5 8 -7 8 -3 0 4 12 -4 27 -18 19 -18 24 -27
15 -36 -8 -8 -15 -7 -25 4 -11 11 -34 14 -81 12 -36 -1 -68 2 -72 7 -3 5 -14
9 -25 9 -10 0 -19 4 -19 8 0 4 -17 9 -37 10 -21 2 -40 6 -43 10 -3 4 -16 7
-30 7 -14 0 -29 2 -35 4 -10 5 -25 9 -64 14 -14 2 -27 9 -29 15 -2 6 -10 8
-19 5 -11 -4 -14 -2 -11 8 6 17 68 24 68 6 0 -8 4 -7 10 3 9 13 11 13 20 0 8
-13 10 -13 10 0 0 10 3 11 11 3 6 -6 18 -9 25 -6 8 3 14 -1 14 -8 0 -7 3 -10
6 -6 10 10 64 -14 57 -26 -4 -7 1 -6 10 2 13 10 17 10 17 1 0 -9 4 -9 17 1 11
10 14 10 9 2 -6 -12 5 -18 27 -14 4 0 7 -3 7 -8 0 -5 11 -11 25 -14 25 -4 25
-4 8 16 -10 12 -12 17 -4 12 9 -5 12 -4 8 2 -4 6 -24 14 -44 19 -21 4 -41 8
-45 9 -5 2 -12 3 -17 4 -5 0 -12 8 -15 17 -4 10 -2 13 7 7 6 -4 21 -8 32 -9z"/>
<path d="M2295 1060 c3 -5 8 -10 11 -10 2 0 4 5 4 10 0 6 -5 10 -11 10 -5 0
-7 -4 -4 -10z"/>
<path d="M1474 863 c-13 -4 -7 -43 7 -43 4 0 11 5 15 12 5 7 3 8 -7 3 -12 -7
-12 -6 -1 7 13 17 6 28 -14 21z"/>
<path d="M279 673 c-11 -3 -15 -11 -12 -23 7 -25 49 -24 49 2 0 19 -12 26 -37
21z"/>
<path d="M420 665 c-6 -7 -2 -15 12 -24 16 -10 22 -10 28 0 18 28 -18 50 -40
24z"/>
<path d="M301 553 c-6 -10 -11 -13 -11 -8 0 12 -40 15 -40 4 0 -4 -9 -5 -19
-2 -19 5 -19 -3 -20 -246 0 -138 4 -249 8 -246 5 2 8 -3 7 -13 0 -9 5 -16 12
-14 6 1 12 -3 12 -9 0 -5 5 -7 10 -4 6 3 10 3 10 -2 0 -4 18 -9 40 -9 24 -1
37 3 33 9 -3 6 -1 7 5 3 20 -12 103 -16 96 -4 -5 7 -2 8 7 2 22 -13 58 -12 63
2 3 8 2 13 -2 12 -4 -1 -17 3 -29 10 -12 7 -24 8 -27 3 -7 -11 -25 -9 -45 3
-9 6 -12 5 -7 -2 9 -14 -46 -11 -56 3 -5 6 -8 6 -8 -2 0 -12 -30 -10 -52 3 -7
5 -8 3 -3 -6 5 -7 -3 -5 -17 6 -15 11 -23 25 -20 33 3 9 1 12 -6 7 -7 -4 -12
-2 -12 3 0 6 5 11 11 11 8 0 8 4 0 14 -9 10 -9 16 -1 21 8 5 8 11 -1 21 -9 11
-8 14 2 14 12 0 12 2 0 9 -10 6 -10 10 -1 16 9 6 9 10 -1 16 -12 8 -12 10 0
18 11 7 11 9 0 14 -10 4 -8 6 4 6 11 1 15 6 11 13 -5 7 -3 8 6 3 6 -4 43 -9
82 -11 53 -3 67 -1 62 9 -5 8 -2 7 9 -2 23 -18 30 -10 18 20 -5 13 -10 19 -10
12 -1 -11 -8 -11 -46 -3 -23 5 -36 -1 -29 -12 5 -8 1 -8 -10 1 -15 12 -21 13
-38 2 -18 -11 -20 -11 -15 3 4 9 2 16 -3 16 -6 0 -10 -4 -10 -9 0 -5 -9 -7
-21 -4 -16 4 -17 8 -7 14 10 7 10 9 1 9 -7 0 -13 5 -13 11 0 5 6 7 13 3 9 -6
9 -4 -1 8 -9 12 -10 18 -2 23 8 5 8 10 0 20 -8 10 -7 14 2 18 10 4 10 6 -1 6
-10 1 -11 4 -2 15 8 10 9 16 1 21 -5 3 -10 11 -10 16 0 6 4 8 8 5 10 -6 9 24
-1 41 -4 6 1 17 10 24 14 12 16 12 8 0 -6 -11 -5 -12 6 -5 21 13 39 14 39 2 0
-7 5 -6 14 1 11 9 15 9 19 -1 4 -10 6 -10 6 -1 1 9 8 10 25 3 17 -6 26 -5 30
3 3 9 7 8 15 -3 8 -12 11 -12 11 -1 0 11 3 11 15 1 12 -10 15 -10 15 0 0 10 3
10 15 0 12 -10 16 -9 21 4 3 9 11 13 18 9 6 -4 5 1 -3 11 -11 13 -16 14 -22 4
-6 -9 -9 -7 -9 7 0 15 -2 17 -9 6 -5 -8 -19 -12 -35 -9 -17 3 -23 1 -19 -6 3
-6 0 -6 -7 1 -11 10 -16 9 -27 -5 -11 -15 -12 -15 -7 -1 3 10 0 20 -7 25 -7 4
-10 3 -6 -3 4 -6 -4 -13 -19 -16 -18 -3 -24 -1 -20 9 8 20 -1 17 -13 -3z m80
-280 c13 -16 12 -17 -3 -4 -10 7 -18 15 -18 17 0 8 8 3 21 -13z"/>
<path d="M823 548 c1 -26 17 -41 17 -17 0 8 5 8 15 -1 12 -10 15 -10 15 0 0 9
3 10 13 1 8 -6 17 -8 20 -4 4 3 7 1 7 -6 0 -7 6 -11 14 -8 11 4 50 -28 51 -43
0 -3 7 -16 14 -29 10 -17 10 -21 1 -16 -8 5 -11 3 -8 -6 3 -8 13 -16 23 -17
10 -3 15 0 11 7 -4 6 -1 11 6 11 8 0 9 3 3 8 -5 4 -11 18 -13 31 -3 30 -27 58
-67 78 -16 9 -33 21 -37 27 -5 7 -8 7 -8 1 0 -6 -9 -11 -20 -11 -11 0 -20 4
-20 9 0 5 -6 4 -14 -2 -11 -9 -15 -9 -19 1 -3 7 -5 1 -4 -14z"/>
<path d="M2270 558 c0 -5 -9 -7 -19 -3 -11 3 -22 1 -26 -5 -3 -6 -11 -8 -16
-4 -6 3 -17 -3 -25 -15 -9 -12 -19 -19 -24 -16 -4 3 -11 -2 -14 -11 -3 -8 -11
-12 -17 -8 -8 4 -9 3 -5 -5 4 -6 0 -18 -8 -27 -9 -8 -16 -22 -16 -30 0 -8 -5
-14 -11 -14 -5 0 -7 -4 -4 -10 3 -5 1 -10 -6 -10 -7 0 -10 -3 -7 -6 4 -3 3
-18 -1 -32 -4 -15 -4 -39 0 -54 4 -17 3 -30 -3 -34 -6 -4 -8 -2 -4 4 3 6 2 13
-3 16 -10 7 -9 -20 2 -30 4 -4 7 -16 7 -26 0 -10 6 -18 13 -18 8 0 7 -4 -3
-10 -12 -8 -12 -12 -3 -18 7 -4 14 -20 15 -35 1 -15 6 -27 10 -27 4 0 8 -5 8
-10 0 -16 89 -102 99 -96 5 3 11 0 14 -7 3 -9 31 -14 88 -15 59 -2 80 0 69 8
-12 8 -10 10 12 10 16 0 34 10 46 25 11 13 22 21 26 18 3 -3 6 1 6 9 0 9 6 18
14 21 16 7 49 71 49 96 0 9 4 21 8 27 5 6 7 20 4 32 -2 12 1 22 7 22 7 0 6 6
-2 15 -9 11 -9 15 -1 15 7 0 9 4 6 10 -7 11 -41 8 -52 -5 -5 -4 -3 -5 3 -2 7
4 14 0 18 -8 6 -18 -3 -47 -13 -40 -4 2 -8 -2 -8 -10 0 -8 4 -12 9 -9 14 9 9
-7 -8 -23 -12 -12 -12 -18 -3 -23 15 -10 3 -30 -19 -30 -11 0 -13 -3 -5 -11 8
-8 -1 -22 -32 -52 -57 -56 -72 -67 -79 -60 -3 4 -13 -2 -22 -13 -8 -10 -12
-13 -9 -6 5 10 1 13 -16 11 -13 -2 -30 0 -36 4 -8 5 -13 3 -13 -3 0 -6 -5 -8
-10 -5 -6 4 -8 11 -5 16 3 5 -1 6 -9 3 -9 -3 -16 -1 -16 5 0 6 -3 10 -7 10
-22 -4 -33 3 -33 18 0 9 -3 13 -6 10 -9 -9 -43 32 -50 60 -4 13 -10 23 -15 23
-4 0 -6 9 -4 20 2 11 -1 20 -6 20 -6 0 -8 4 -4 9 3 5 0 13 -6 17 -8 4 -7 9 2
15 12 8 11 11 -1 19 -13 9 -13 10 0 10 13 0 13 2 1 9 -12 8 -12 12 -2 24 8 11
9 17 1 22 -7 4 -7 11 -2 18 14 18 23 49 12 42 -5 -3 6 17 23 43 18 27 35 47
40 45 4 -2 7 1 7 6 0 6 7 11 15 11 8 0 15 8 16 18 0 11 2 12 6 4 4 -10 9 -10
23 3 14 12 20 13 26 4 5 -8 3 -10 -6 -4 -9 6 -11 4 -5 -5 6 -10 11 -9 22 5 9
14 13 15 13 4 0 -10 2 -11 8 -2 5 7 13 9 21 3 8 -4 20 -6 28 -3 7 3 13 -1 13
-8 0 -9 3 -10 8 -4 9 13 35 19 28 6 -4 -5 3 -12 14 -16 11 -3 20 -11 20 -16 0
-5 9 -9 20 -9 12 0 17 -5 14 -14 -3 -7 2 -16 11 -20 9 -3 13 -11 9 -17 -4 -7
-3 -9 3 -6 6 4 14 0 17 -9 4 -10 2 -13 -7 -8 -9 5 -9 4 0 -6 6 -7 9 -18 6 -25
-2 -8 0 -23 7 -34 9 -18 14 -19 32 -10 14 8 17 13 9 18 -7 5 -9 15 -5 26 6 14
4 16 -6 10 -10 -6 -12 -4 -7 8 3 9 2 19 -4 22 -5 4 -7 11 -4 16 4 5 1 9 -4 9
-6 0 -11 7 -11 15 0 8 -5 15 -11 15 -5 0 -7 5 -4 10 5 9 -1 12 -21 9 -3 0 -16
11 -30 26 -24 26 -51 37 -87 37 -9 -1 -15 3 -12 9 4 5 -4 5 -19 -1 -14 -5 -26
-6 -26 -1 0 4 -7 8 -15 8 -8 0 -15 -4 -15 -9z"/>
<path d="M2830 553 c-13 -9 -20 -12 -17 -6 4 6 -3 8 -18 5 -14 -2 -25 -8 -25
-13 0 -5 -7 -9 -16 -9 -14 0 -45 -28 -91 -84 -6 -7 -9 -17 -6 -20 4 -3 2 -6
-3 -6 -5 0 -9 -10 -9 -22 -1 -13 -5 -34 -9 -47 -6 -18 -5 -22 5 -16 11 6 12 5
2 -6 -7 -7 -13 -19 -13 -27 0 -8 5 -10 13 -6 10 6 10 4 0 -7 -7 -7 -13 -20
-13 -28 0 -14 1 -14 10 -1 5 8 10 10 10 5 0 -6 -5 -16 -12 -23 -9 -9 -9 -15 0
-24 7 -7 12 -21 12 -33 0 -11 7 -31 16 -43 8 -12 12 -22 9 -22 -3 0 13 -20 37
-45 24 -25 51 -45 61 -45 9 0 17 -8 17 -17 0 -15 2 -16 10 -3 5 8 10 10 10 3
0 -7 22 -11 65 -11 36 0 65 4 65 9 0 5 5 9 11 9 5 0 7 -6 3 -12 -5 -9 -3 -9 9
1 9 7 14 18 10 24 -3 6 -1 7 5 3 7 -4 20 -2 29 3 10 6 14 11 8 11 -5 0 1 10
15 23 36 31 63 76 56 93 -3 8 -2 13 3 10 5 -3 11 1 15 9 3 8 0 15 -7 15 -7 0
-4 5 7 11 15 9 16 13 5 20 -8 5 -9 9 -4 9 13 0 9 140 -4 153 -5 5 -7 16 -4 23
3 8 0 14 -7 14 -6 0 -8 5 -5 10 3 6 2 10 -4 10 -5 0 -13 9 -16 20 -3 11 -13
20 -21 20 -8 0 -13 3 -11 8 3 4 -1 13 -9 20 -11 10 -14 10 -14 0 0 -6 -7 -3
-15 8 -8 10 -15 15 -15 11 0 -5 -7 -2 -15 7 -8 8 -24 13 -35 11 -11 -2 -20 2
-20 8 0 8 -3 8 -8 2 -8 -12 -22 -13 -38 -3 -6 4 -21 0 -34 -9z m58 -25 c3 9 9
9 23 2 10 -6 19 -7 19 -3 0 4 5 1 10 -7 7 -11 10 -11 10 -2 0 8 8 6 22 -7 11
-11 26 -17 32 -14 6 3 8 3 4 -2 -4 -4 4 -16 17 -27 14 -11 25 -24 25 -30 0 -6
7 -20 17 -30 10 -12 12 -18 4 -18 -7 0 -9 -5 -6 -10 4 -6 12 -7 18 -3 7 4 6 0
-2 -10 -9 -11 -10 -17 -2 -17 6 0 11 -5 11 -11 0 -5 -4 -8 -9 -5 -8 5 -8 -22
-1 -31 7 -8 5 -30 -3 -40 -6 -9 -5 -13 3 -13 9 0 10 -3 1 -13 -6 -8 -8 -17 -4
-20 3 -4 1 -7 -6 -7 -7 0 -9 -5 -6 -10 9 -14 -4 -52 -16 -45 -5 3 -6 0 -4 -7
3 -8 -13 -34 -36 -59 -23 -24 -39 -37 -35 -29 4 8 1 7 -8 -4 -8 -10 -19 -15
-25 -11 -6 3 -11 1 -11 -5 0 -6 -4 -8 -10 -5 -5 3 -10 -2 -10 -12 0 -13 -3
-14 -8 -5 -5 6 -19 12 -33 12 -42 0 -59 3 -59 12 0 4 -7 8 -14 8 -18 0 -66 43
-66 59 0 7 -4 9 -10 6 -5 -3 -10 3 -10 15 0 12 -4 18 -10 15 -5 -3 -10 3 -10
14 0 11 -4 23 -10 26 -5 3 -10 12 -10 18 0 7 4 6 10 -3 6 -9 10 -10 10 -3 0 6
-5 15 -11 18 -6 4 -8 13 -5 21 3 8 0 14 -7 14 -8 0 -6 4 3 10 11 7 11 10 2 10
-7 0 -10 5 -7 10 4 6 1 18 -6 26 -10 12 -9 13 5 8 14 -5 15 -3 7 20 -8 20 -7
27 7 35 9 6 12 11 6 11 -17 0 -12 30 5 30 14 0 14 2 1 10 -10 7 -11 10 -2 10
7 0 16 8 19 18 9 22 23 36 46 45 9 3 17 11 17 16 0 6 7 7 17 4 12 -5 14 -3 8
7 -5 9 -4 11 3 6 7 -4 20 -3 29 3 12 6 24 6 37 -1 15 -8 21 -8 24 0z"/>
<path d="M777 553 c-10 -3 -14 -9 -10 -16 4 -7 0 -6 -10 2 -14 11 -18 11 -23
-3 -3 -9 -10 -16 -15 -16 -10 0 -85 -71 -83 -79 3 -12 -8 -31 -15 -27 -4 3 -8
-6 -9 -20 -5 -55 -7 -64 -12 -64 -4 0 -7 -7 -7 -15 0 -8 3 -15 7 -15 4 0 7 -7
7 -15 0 -8 -5 -15 -10 -15 -5 0 -3 -8 4 -17 10 -11 10 -14 2 -9 -7 4 -13 2
-13 -3 0 -6 5 -11 11 -11 6 0 9 -6 6 -14 -3 -7 0 -19 6 -25 6 -6 8 -11 4 -11
-4 0 -1 -13 7 -29 9 -16 12 -32 8 -36 -4 -5 -1 -4 7 0 11 6 13 4 8 -8 -3 -9
-1 -19 5 -23 7 -5 8 -2 3 6 -5 9 -4 11 3 6 7 -4 12 -14 12 -22 0 -8 8 -18 18
-21 9 -4 23 -13 30 -20 8 -7 17 -11 22 -8 4 3 11 -3 14 -12 6 -15 8 -15 16 -3
7 11 10 12 10 2 0 -10 19 -13 73 -12 78 2 141 16 132 31 -4 5 2 9 12 9 15 0
16 2 3 10 -12 8 -12 10 -1 10 10 0 11 3 2 14 -9 11 -9 15 1 19 10 4 10 8 -2
17 -12 9 -12 13 -2 17 10 4 10 8 0 21 -10 12 -10 14 0 8 6 -4 12 -3 12 3 0 5
-6 12 -12 14 -8 4 -4 8 10 12 12 4 22 12 22 18 0 6 7 2 16 -9 8 -10 12 -13 8
-5 -5 10 -3 13 7 9 23 -9 39 15 21 32 -14 13 -15 12 -9 -3 3 -9 2 -17 -3 -17
-6 0 -10 8 -10 18 0 13 -2 14 -9 3 -7 -11 -9 -11 -14 0 -4 11 -6 11 -6 1 -1
-10 -6 -10 -22 -1 -13 7 -19 7 -15 1 3 -6 -3 -14 -15 -17 -17 -6 -19 -9 -8
-16 9 -6 10 -9 2 -9 -8 0 -9 -9 -3 -30 5 -16 5 -30 0 -30 -4 0 -4 -16 0 -35 5
-21 4 -35 -2 -35 -5 0 -7 -4 -4 -8 5 -8 -8 -12 -46 -13 -10 0 -18 -5 -18 -11
0 -7 -5 -6 -14 1 -9 8 -15 8 -18 1 -1 -5 -13 -12 -26 -15 -13 -2 -20 0 -17 6
4 5 -1 9 -10 9 -10 0 -13 5 -9 12 5 9 2 9 -9 -1 -12 -9 -17 -10 -17 -2 0 7 -4
9 -10 6 -5 -3 -10 -1 -10 4 0 6 -3 11 -7 10 -18 -3 -52 14 -47 22 3 5 -2 12
-10 15 -9 3 -14 10 -11 14 3 4 -2 11 -11 14 -8 3 -12 10 -9 16 3 5 2 10 -2 10
-8 0 -12 15 -15 58 -1 6 -5 12 -9 12 -9 0 -6 97 4 106 4 4 2 13 -4 21 -9 10
-8 13 1 13 8 0 11 3 7 6 -3 4 2 23 12 43 20 39 61 90 61 76 0 -5 6 -1 13 9 7
9 24 18 38 20 35 3 49 14 42 31 -5 16 -6 16 -36 8z m-137 -217 c0 -2 -8 -10
-17 -17 -16 -13 -17 -12 -4 4 13 16 21 21 21 13z m295 -324 c-3 -3 -11 0 -18
7 -9 10 -8 11 6 5 10 -3 15 -9 12 -12z"/>
<path d="M1352 551 c-6 -3 -9 -15 -7 -26 2 -11 4 -24 4 -28 1 -5 5 -6 10 -3 5
3 15 -2 22 -11 12 -14 12 -15 1 -9 -11 7 -12 4 -3 -13 13 -24 24 -26 39 -8 9
10 6 17 -8 27 -14 10 -16 16 -7 22 9 6 9 8 -1 8 -7 0 -10 5 -7 10 3 6 1 10 -5
10 -6 0 -9 4 -6 9 8 12 -18 21 -32 12z"/>
<path d="M1720 549 c0 -5 -4 -8 -9 -5 -5 3 -12 -2 -16 -11 -3 -10 -1 -19 4
-21 6 -2 11 -8 11 -13 0 -6 -4 -8 -8 -5 -5 3 -9 -1 -9 -9 0 -8 4 -15 9 -15 4
0 8 -5 8 -11 0 -5 -4 -8 -8 -5 -5 3 -9 -1 -9 -9 0 -8 5 -15 11 -15 6 0 4 -5
-4 -10 -12 -8 -12 -10 -1 -10 9 0 10 -4 4 -12 -16 -22 -9 -43 15 -46 20 -3 21
-1 12 22 -7 19 -6 26 3 26 8 0 7 4 -3 10 -13 9 -13 10 0 10 11 0 12 2 3 8 -8
5 -9 13 -3 22 5 8 5 21 0 30 -6 12 -3 21 9 31 23 18 41 22 41 8 0 -8 4 -8 14
0 10 9 16 9 21 1 5 -8 11 -8 19 -1 9 7 16 7 24 -1 9 -9 12 -9 12 2 0 10 3 11
11 3 8 -8 20 -8 35 -3 15 6 24 5 28 -3 3 -9 5 -9 5 1 1 9 6 10 20 2 26 -13 36
3 15 24 -16 17 -39 22 -30 7 4 -5 -9 -6 -29 -1 -19 4 -35 4 -35 -1 0 -4 -10
-5 -22 0 -13 4 -35 5 -51 0 -16 -5 -25 -4 -22 2 4 5 1 9 -4 9 -6 0 -11 -3 -11
-7 0 -5 -11 -8 -24 -8 -13 0 -22 3 -19 8 2 4 -1 7 -6 7 -6 0 -11 -5 -11 -11z"/>
<path d="M3204 538 c0 -9 2 -15 5 -13 2 3 14 -3 25 -12 17 -15 19 -15 8 -1 -9
11 -10 18 -2 23 6 4 10 3 9 -2 -1 -4 -1 -10 1 -13 8 -22 8 -50 0 -45 -6 3 -7
-1 -4 -9 3 -9 11 -13 18 -10 6 3 2 -2 -8 -10 -20 -16 -20 -16 0 -17 16 0 16
-2 -5 -10 -19 -8 -21 -12 -11 -24 7 -8 9 -15 6 -15 -4 0 -2 -9 4 -20 8 -15 8
-20 -2 -20 -9 0 -9 -3 2 -9 8 -6 19 -7 25 -5 5 3 0 -3 -13 -14 -15 -14 -18
-22 -10 -25 10 -4 10 -6 0 -6 -10 -1 -10 -6 -2 -21 8 -15 8 -20 -1 -20 -8 0
-8 -4 1 -15 10 -12 10 -15 0 -15 -9 0 -9 -4 1 -17 12 -15 12 -16 -1 -8 -13 8
-13 7 0 -10 9 -11 10 -16 3 -11 -7 4 -13 2 -13 -3 0 -6 6 -11 13 -11 7 0 8 -3
2 -8 -15 -10 -13 -72 2 -72 7 0 13 -5 13 -11 0 -5 -4 -7 -10 -4 -5 3 -7 0 -4
-9 3 -8 17 -17 30 -20 14 -4 22 -11 19 -17 -8 -12 18 -7 27 6 5 6 8 6 8 -1 0
-15 80 -15 80 0 0 7 3 7 8 1 10 -14 32 -17 32 -4 0 5 4 8 9 4 5 -3 13 -1 16 5
5 8 11 7 21 -1 12 -10 13 -9 8 6 -5 12 -4 16 3 12 6 -4 19 0 27 9 9 8 16 13
16 10 0 -3 16 11 35 31 19 20 35 43 35 50 0 7 5 13 10 13 6 0 10 9 10 21 0 11
4 17 10 14 7 -4 7 3 0 20 -7 17 -7 24 0 20 6 -4 10 25 10 79 0 47 -4 86 -9 86
-5 0 -11 12 -14 28 -6 30 -62 92 -83 92 -8 0 -14 4 -14 8 0 11 -87 35 -105 28
-8 -3 -15 0 -15 7 0 8 -4 6 -10 -3 -5 -8 -10 -10 -10 -5 0 6 -9 11 -20 11 -11
0 -20 -4 -20 -8 0 -4 -6 -5 -14 -2 -8 3 -45 6 -83 7 -59 2 -69 0 -69 -15z
m276 -13 c-10 -13 -9 -15 9 -15 11 0 21 -5 21 -11 0 -5 4 -8 9 -5 5 3 20 -3
33 -14 14 -11 28 -17 30 -14 3 2 11 -9 18 -26 7 -16 16 -30 20 -30 7 0 10 -17
11 -57 1 -13 4 -21 8 -18 4 2 8 -2 8 -10 0 -8 -5 -15 -10 -15 -5 0 -4 -7 4
-16 10 -13 10 -17 -2 -25 -12 -7 -12 -9 1 -9 13 0 13 -2 1 -9 -8 -5 -11 -16
-8 -25 4 -9 2 -16 -3 -16 -5 0 -7 -9 -5 -20 2 -11 0 -18 -6 -15 -5 4 -9 -1 -9
-9 0 -18 -72 -96 -88 -96 -7 0 -12 -4 -12 -8 0 -5 -7 -9 -15 -10 -8 -1 -22 -3
-30 -4 -8 -1 -15 -5 -15 -10 0 -11 -23 -6 -32 7 -5 6 -8 6 -8 -2 0 -13 -18
-12 -39 1 -11 7 -13 5 -7 -9 5 -14 4 -16 -7 -7 -8 7 -17 9 -20 5 -4 -3 -7 -1
-7 6 0 7 -4 10 -8 7 -12 -7 -44 33 -36 46 4 6 3 8 -4 4 -6 -3 -14 -1 -18 5 -4
7 -3 9 4 5 16 -9 26 13 12 28 -8 11 -8 16 2 20 10 5 10 7 1 12 -7 3 -13 10
-13 15 0 6 5 7 11 3 7 -4 7 1 -1 16 -8 15 -8 20 -1 16 6 -4 11 -2 11 3 0 6 -6
11 -12 11 -9 0 -8 4 2 10 13 9 13 10 0 10 -13 0 -13 1 0 10 11 7 11 10 2 10
-8 0 -10 5 -5 13 12 19 13 40 1 54 -7 9 -7 13 1 13 9 0 9 27 1 50 -2 3 -2 8
-1 12 8 55 8 78 0 78 -5 0 -1 8 9 19 18 20 33 22 44 6 5 -6 8 -5 8 3 0 8 5 10
12 6 17 -11 58 -11 58 -1 0 5 7 4 15 -3 12 -10 15 -10 15 1 0 11 2 11 9 1 6
-10 10 -10 21 3 7 8 15 15 17 15 3 0 0 -7 -7 -15z m-220 -125 c0 -5 -2 -10 -4
-10 -3 0 -8 5 -11 10 -3 6 -1 10 4 10 6 0 11 -4 11 -10z"/>
<path d="M1325 520 c-3 -5 -3 -10 1 -10 4 0 -1 -9 -10 -19 -10 -11 -15 -25
-11 -30 3 -6 1 -11 -4 -11 -6 0 -11 -7 -11 -15 0 -8 -5 -15 -12 -15 -6 0 -3
-7 8 -15 18 -13 18 -14 -4 -8 -17 4 -21 2 -16 -10 3 -9 -3 -23 -14 -33 -11 -9
-18 -23 -15 -30 3 -8 1 -14 -5 -14 -6 0 -8 -10 -4 -22 3 -14 2 -19 -6 -14 -11
6 -17 -12 -13 -37 0 -4 -4 -7 -10 -7 -6 0 -9 -7 -5 -15 3 -8 1 -15 -5 -15 -6
0 -7 -5 -3 -12 4 -6 1 -16 -7 -22 -8 -6 -14 -22 -15 -36 0 -14 -5 -24 -12 -22
-7 1 -12 -2 -12 -8 0 -5 6 -10 13 -10 8 0 8 -3 -2 -9 -8 -5 -11 -16 -8 -26 4
-9 3 -14 -3 -10 -6 3 -10 -5 -10 -18 0 -14 6 -24 15 -24 8 0 12 4 9 9 -3 4 0
8 7 8 7 0 9 3 6 7 -4 3 -2 12 4 20 6 7 9 13 5 13 -3 0 3 16 14 36 11 19 16 33
10 29 -6 -3 -7 0 -4 9 3 9 12 16 19 16 18 0 24 20 14 48 -5 13 -5 22 1 22 5 0
7 7 4 15 -4 8 -1 15 6 15 6 0 9 4 6 9 -4 5 -1 11 5 13 6 2 12 18 12 35 1 17 6
31 12 30 5 -1 9 4 8 11 -2 6 2 12 9 12 6 0 9 2 6 5 -3 3 7 31 23 62 21 40 26
60 19 73 -5 10 -6 20 -3 24 3 3 4 6 0 6 -3 0 -9 -4 -12 -10z"/>
<path d="M1401 431 c-9 -6 -10 -11 -2 -15 6 -4 11 -16 11 -27 0 -10 4 -19 8
-19 4 0 8 -10 9 -22 1 -11 7 -24 14 -28 6 -4 8 -13 5 -19 -4 -6 -2 -11 4 -11
7 0 10 -7 6 -15 -3 -8 -1 -15 5 -15 6 0 9 -7 5 -15 -3 -10 1 -15 12 -15 15 0
15 -2 2 -10 -10 -6 -11 -10 -2 -10 6 0 12 -4 12 -9 0 -13 -35 -20 -53 -10 -10
6 -18 5 -23 -2 -4 -8 -3 -9 5 -5 6 4 11 4 10 -1 -4 -23 2 -43 11 -38 6 4 7 12
3 18 -4 7 0 6 10 -2 16 -13 21 -9 18 14 -1 6 12 -6 28 -25 18 -21 25 -37 19
-41 -6 -4 -5 -10 5 -15 9 -5 18 -22 21 -38 7 -40 26 -58 46 -45 12 9 11 10 -5
5 -19 -6 -19 -5 -2 8 16 12 16 14 1 20 -9 4 -14 13 -10 21 3 8 1 15 -5 15 -6
0 -8 4 -4 9 3 5 1 12 -5 16 -5 3 -10 15 -10 26 0 10 -5 19 -11 19 -5 0 -7 5
-4 10 3 6 1 10 -5 10 -6 0 -8 5 -5 10 7 12 -16 70 -28 70 -5 0 -5 5 -2 10 3 6
0 10 -7 10 -11 0 -10 2 0 9 11 7 10 9 -3 15 -9 3 -14 10 -10 15 3 5 1 12 -5
16 -6 4 -8 11 -5 16 4 5 1 9 -4 9 -6 0 -11 11 -11 25 0 14 -4 25 -10 25 -5 0
-9 3 -9 8 5 30 -5 38 -30 23z"/>
<path d="M1694 324 c0 -13 5 -24 9 -24 4 0 3 -9 -3 -20 -8 -14 -8 -20 0 -20 7
0 8 -6 1 -18 -6 -11 -6 -24 -1 -32 6 -9 5 -17 -3 -22 -15 -10 10 -29 27 -22
17 7 14 44 -4 44 -10 1 -7 5 8 13 12 7 19 17 15 22 -4 5 1 3 11 -5 22 -17 25
-17 37 2 7 11 11 10 19 -2 9 -13 10 -13 10 0 0 13 1 13 10 0 9 -13 10 -13 10
0 0 13 1 13 10 0 9 -13 10 -13 10 0 0 13 1 13 10 0 8 -12 11 -13 19 -1 7 11 9
11 14 0 4 -11 6 -11 6 -1 1 9 6 10 20 3 14 -8 22 -7 32 6 10 12 10 15 2 9 -8
-4 -13 -2 -13 6 0 8 -9 14 -20 14 -11 0 -20 -4 -20 -7 0 -4 -13 -4 -30 1 -21
6 -30 5 -30 -3 0 -7 -4 -6 -10 3 -5 8 -10 10 -10 4 0 -8 -11 -9 -35 -4 -31 7
-34 6 -24 -7 11 -12 9 -12 -14 -2 -14 6 -26 15 -25 18 4 34 -5 59 -21 64 -15
3 -18 -1 -17 -19z"/>
<path d="M440 278 c0 -4 5 -8 11 -8 5 0 7 -6 3 -12 -4 -7 -3 -9 1 -5 15 13 14
34 -1 34 -8 0 -14 -4 -14 -9z"/>
<path d="M1384 192 c6 -9 1 -11 -20 -8 -15 3 -35 0 -43 -7 -9 -8 -12 -8 -8 -1
5 8 -6 11 -32 11 -38 -1 -39 -2 -32 -36 1 -2 8 2 16 9 11 9 18 10 29 1 16 -13
37 -11 48 4 5 6 8 5 8 -3 0 -10 5 -10 21 -1 15 8 19 8 15 0 -8 -13 3 -14 22
-3 9 7 7 13 -9 28 -13 10 -19 13 -15 6z"/>
<path d="M1696 143 c-3 -7 0 -13 7 -13 8 0 6 -4 -3 -10 -12 -8 -12 -10 -1 -10
10 0 11 -3 2 -13 -13 -16 -5 -27 21 -27 21 0 22 4 8 30 -6 12 -7 21 0 25 13 8
2 32 -15 32 -8 0 -16 -6 -19 -14z"/>
<path d="M1694 43 c0 -12 5 -23 9 -23 5 0 5 -6 1 -12 -6 -10 -5 -10 8 -1 8 7
18 9 23 5 4 -4 3 3 -4 15 -8 16 -8 22 2 26 6 2 0 6 -14 9 -23 4 -26 1 -25 -19z"/>
</g>
</svg>
