<?xml version="1.0" encoding="UTF-8" ?>
<!DOCTYPE svg PUBLIC "-//W3C//DTD SVG 1.1//EN" "http://www.w3.org/Graphics/SVG/1.1/DTD/svg11.dtd">
<svg width="400pt" height="364pt" viewBox="0 0 400 364" version="1.1" xmlns="http://www.w3.org/2000/svg">
<g id="#e4e9d6ff">
<path fill="#e4e9d6" opacity="1.00" d=" M 247.45 0.00 L 251.33 0.00 C 260.04 2.33 265.41 10.63 268.43 18.59 C 271.07 25.25 268.64 32.60 270.65 39.36 C 271.92 43.46 276.43 44.90 279.12 47.87 C 286.20 55.04 287.68 65.64 288.09 75.26 C 307.62 66.19 326.44 55.50 343.90 42.88 C 354.25 34.99 362.40 23.56 375.12 19.24 C 383.34 16.38 392.51 22.02 394.88 30.11 C 398.11 40.52 395.53 51.78 391.50 61.60 C 389.67 66.41 385.30 69.59 383.06 74.15 C 381.81 76.64 383.52 79.18 384.56 81.40 C 389.11 89.79 389.76 99.99 386.98 109.05 C 383.95 119.11 377.65 127.68 371.65 136.12 C 372.70 141.08 377.67 144.23 378.72 149.28 C 382.80 163.92 376.65 179.24 367.90 190.93 C 364.52 195.86 358.93 199.73 357.97 205.99 C 357.34 212.23 357.90 218.68 355.67 224.67 C 351.88 237.27 341.57 246.68 329.71 251.71 C 322.80 254.34 315.41 260.71 317.86 268.95 C 321.99 282.92 335.62 291.08 348.02 296.94 C 361.76 303.87 378.47 303.48 391.03 312.92 C 396.12 316.76 399.10 322.75 400.00 328.99 L 400.00 336.00 C 398.95 343.82 396.21 351.82 390.33 357.33 C 384.91 362.32 377.11 363.49 370.01 363.03 C 353.54 361.84 338.32 354.93 322.62 350.48 C 314.43 347.89 306.13 351.17 298.87 354.85 C 287.41 360.43 274.76 362.97 262.12 364.00 L 247.40 364.00 C 227.53 362.36 207.61 357.19 190.75 346.26 C 175.92 337.00 164.11 323.42 155.94 308.04 C 142.86 284.43 135.01 257.08 114.92 238.03 C 116.61 241.46 119.08 244.89 118.89 248.89 C 118.59 252.14 113.59 252.44 111.97 250.04 C 107.44 244.66 104.67 238.09 100.63 232.38 C 97.65 228.10 91.52 227.72 88.64 223.33 C 86.81 220.89 87.20 217.26 84.72 215.25 C 80.56 211.87 75.13 210.82 70.35 208.64 C 59.93 203.89 49.57 198.99 39.26 194.02 C 35.94 203.12 26.58 208.95 17.02 208.71 C 11.02 208.64 3.10 208.41 0.00 202.27 L 0.00 199.27 C 3.21 185.89 17.97 176.71 31.35 180.79 C 28.76 171.44 20.29 164.19 20.66 154.00 C 20.96 146.54 22.57 138.44 27.88 132.84 C 31.68 128.75 38.72 129.68 41.95 134.01 C 47.08 140.73 48.04 149.80 47.21 157.98 C 46.58 166.16 37.21 171.39 38.77 179.98 C 40.12 186.78 47.33 189.42 52.91 191.95 C 51.73 186.73 50.27 181.44 50.54 176.04 C 50.93 168.98 54.88 162.65 59.71 157.71 C 62.14 155.34 65.24 152.92 68.84 153.30 C 72.61 153.84 74.96 157.40 76.24 160.68 C 78.83 167.69 79.11 175.90 75.65 182.67 C 72.77 188.22 67.80 192.19 63.60 196.69 C 72.20 200.91 80.14 206.66 89.41 209.39 C 93.38 210.67 98.03 210.08 101.07 207.06 C 106.34 201.97 108.51 194.65 113.08 189.01 C 124.07 173.79 143.80 165.95 162.28 169.07 C 159.49 148.32 166.24 127.56 176.98 109.99 C 194.59 80.16 221.38 55.34 231.47 21.41 C 234.15 12.88 237.72 2.48 247.45 0.00 M 243.51 14.58 C 235.25 30.93 230.14 48.81 220.25 64.34 C 210.40 79.58 199.07 93.78 188.38 108.44 C 179.52 120.77 171.67 134.58 170.03 149.94 C 169.43 156.17 168.59 162.84 171.19 168.75 C 172.62 172.27 176.26 173.87 179.43 175.47 C 184.77 178.00 188.73 182.63 192.00 187.42 C 189.03 170.93 189.90 153.35 196.90 137.95 C 203.24 123.66 214.51 111.97 227.65 103.71 C 242.31 94.34 259.38 89.86 274.65 81.72 C 282.36 76.77 279.62 66.30 276.52 59.38 C 274.26 53.38 267.52 51.76 263.14 47.84 C 260.08 45.01 261.26 40.60 261.92 37.03 C 263.49 30.14 261.17 23.09 258.11 16.96 C 256.40 13.91 254.38 10.53 250.90 9.32 C 247.39 8.47 244.90 11.86 243.51 14.58 M 370.54 32.50 C 346.98 50.87 322.69 68.70 295.75 81.84 C 270.21 93.96 241.27 100.50 219.64 119.66 C 205.12 132.31 196.71 151.81 198.26 171.08 C 199.06 181.10 202.99 190.46 205.98 199.96 C 206.59 202.43 207.60 205.53 205.72 207.69 C 202.36 209.45 198.76 206.78 196.06 204.89 C 190.00 199.95 186.14 192.88 180.24 187.76 C 165.44 173.68 140.01 174.94 124.90 187.85 C 117.99 193.66 115.90 202.83 110.89 210.01 C 107.70 215.21 101.36 216.64 96.52 219.80 C 102.71 221.66 109.64 222.00 114.91 226.13 C 130.27 237.34 140.00 254.30 147.54 271.39 C 156.18 290.94 165.95 310.52 181.05 325.96 C 192.27 337.65 206.58 346.41 222.24 350.66 C 239.37 355.29 257.55 356.25 275.02 353.07 C 290.29 350.10 303.73 338.73 319.92 340.79 C 336.88 344.06 352.48 353.31 370.00 353.89 C 376.68 354.19 384.09 351.70 387.49 345.56 C 391.30 338.69 393.01 328.99 387.37 322.61 C 381.07 315.95 371.59 314.37 363.19 311.83 C 346.79 307.26 330.54 299.84 318.88 287.09 C 313.22 280.70 308.53 272.74 308.37 264.00 C 308.24 258.58 310.80 253.33 314.86 249.81 C 320.39 244.73 328.31 243.77 334.18 239.22 C 340.74 234.28 345.99 227.25 347.75 219.13 C 349.19 212.28 345.56 205.01 348.46 198.39 C 352.15 191.69 359.52 188.03 363.30 181.36 C 368.76 172.43 373.33 161.46 370.19 150.93 C 368.90 146.03 364.83 142.84 360.82 140.19 C 358.60 138.98 359.33 136.16 360.63 134.56 C 365.27 127.93 371.53 122.40 374.85 114.88 C 378.35 107.35 381.43 98.53 378.66 90.28 C 376.28 85.44 371.85 81.92 369.90 76.79 C 371.57 72.76 374.91 69.92 377.81 66.81 C 384.54 58.41 388.12 47.19 386.38 36.46 C 385.77 33.03 383.99 28.73 380.03 28.30 C 376.39 28.14 373.30 30.42 370.54 32.50 M 32.49 139.59 C 26.90 144.03 28.06 152.68 28.79 159.02 C 29.24 162.50 31.66 169.36 36.20 166.20 C 40.84 161.18 40.41 153.40 39.45 147.09 C 38.80 143.74 36.82 138.41 32.49 139.59 M 65.18 162.21 C 57.88 167.99 56.21 178.68 58.72 187.27 C 59.30 189.74 62.33 189.27 63.63 187.69 C 69.39 181.77 71.41 172.87 69.85 164.88 C 69.60 162.73 67.26 160.73 65.18 162.21 M 7.13 199.48 C 16.09 204.23 29.35 200.46 32.20 190.10 C 22.97 185.81 11.06 189.93 7.13 199.48 Z" />
<path fill="#e4e9d6" opacity="1.00" d=" M 150.36 201.48 C 153.02 200.49 156.27 200.61 158.59 202.40 C 162.42 205.45 162.68 211.83 159.31 215.31 C 156.01 218.70 149.49 218.13 147.07 213.98 C 144.42 209.94 145.67 203.42 150.36 201.48 Z" />
</g>
</svg>
