<?xml version="1.0" encoding="UTF-8" ?>
<!DOCTYPE svg PUBLIC "-//W3C//DTD SVG 1.1//EN" "http://www.w3.org/Graphics/SVG/1.1/DTD/svg11.dtd">
<svg width="400pt" height="400pt" viewBox="0 0 400 400" version="1.1" xmlns="http://www.w3.org/2000/svg">
<g id="#e6ebd8ff">
<path fill="#e6ebd8" opacity="1.00" d=" M 190.85 0.00 L 208.89 0.00 C 244.48 1.86 279.68 12.77 309.45 32.49 C 340.07 52.60 365.16 81.14 380.84 114.27 C 392.24 137.90 398.25 163.86 400.00 189.97 L 400.00 209.72 C 397.94 245.27 386.95 280.38 367.12 310.05 C 346.90 340.61 318.26 365.60 285.06 381.17 C 261.60 392.37 235.89 398.27 210.02 400.00 L 190.29 400.00 C 154.74 397.94 119.62 386.95 89.95 367.12 C 59.40 346.90 34.41 318.26 18.84 285.07 C 7.54 261.35 1.57 235.34 0.00 209.17 L 0.00 190.43 C 1.67 164.15 7.71 138.04 19.17 114.26 C 34.85 81.14 59.93 52.61 90.54 32.50 C 120.25 12.82 155.35 1.93 190.85 0.00 M 181.44 19.66 C 141.26 23.57 102.70 41.62 73.86 69.85 C 50.43 92.45 33.20 121.46 24.87 152.95 C 14.15 192.95 17.50 236.63 34.59 274.39 C 58.09 327.14 108.11 367.25 164.97 377.92 C 201.81 385.12 240.90 380.75 275.06 365.11 C 308.26 350.04 336.61 324.62 355.43 293.41 C 388.89 238.90 389.87 166.44 358.00 111.00 C 339.84 78.87 311.70 52.43 278.41 36.47 C 248.47 22.01 214.49 16.29 181.44 19.66 Z" />
<path fill="#e6ebd8" opacity="1.00" d=" M 199.55 51.54 C 208.63 45.28 220.87 42.46 231.38 46.62 C 238.55 49.83 245.76 56.48 245.13 65.01 C 245.00 75.68 245.02 86.36 245.04 97.03 C 245.09 101.65 247.48 105.78 248.84 110.09 C 255.96 128.93 264.05 148.10 278.07 162.94 C 283.48 168.90 290.46 173.16 295.87 179.10 C 299.59 183.09 301.10 188.63 300.97 193.99 C 300.97 227.33 300.98 260.67 300.97 294.01 C 300.96 303.94 297.49 314.20 290.02 320.99 C 281.74 328.70 270.04 331.41 259.00 331.31 C 217.01 331.23 175.01 331.26 133.02 331.24 C 126.91 331.25 121.06 328.48 116.67 324.32 C 107.63 315.52 102.09 303.40 100.79 290.89 C 100.82 289.62 100.20 288.56 99.24 287.79 C 89.43 278.77 86.09 264.86 85.93 251.98 C 85.67 249.71 86.69 246.93 84.83 245.14 C 77.81 236.52 75.33 224.72 77.22 213.86 C 77.62 210.73 79.21 207.39 77.48 204.38 C 73.95 196.81 73.46 188.27 73.58 180.04 C 74.08 169.46 80.89 160.32 89.13 154.17 C 98.90 147.03 110.78 142.33 123.00 142.34 C 140.32 142.45 157.65 142.52 174.97 142.37 C 171.38 125.21 170.39 107.18 174.76 90.07 C 178.35 74.95 186.65 60.53 199.55 51.54 M 211.18 68.20 C 202.59 74.12 197.36 83.87 194.77 93.79 C 190.45 110.52 192.20 128.17 196.34 144.75 C 197.22 148.47 198.76 152.46 197.26 156.25 C 195.96 160.09 192.03 162.62 188.06 162.72 C 166.71 162.91 145.35 162.84 124.00 162.69 C 115.14 162.51 106.61 166.28 99.84 171.81 C 96.92 174.43 93.68 177.74 93.89 181.97 C 94.18 186.46 94.87 190.91 95.35 195.39 C 100.27 198.11 102.25 204.67 99.63 209.65 C 96.04 216.42 95.82 225.21 100.35 231.59 C 102.93 234.67 106.46 237.64 106.40 242.06 C 106.13 253.10 105.19 267.46 115.55 274.51 C 119.39 276.47 121.52 280.76 120.99 285.01 C 120.52 293.58 124.12 301.95 129.63 308.38 C 130.94 309.93 132.82 311.06 134.93 310.86 C 176.95 310.78 218.98 310.80 261.01 310.86 C 266.32 310.78 272.15 309.99 276.19 306.22 C 279.79 302.88 280.86 297.73 280.76 293.00 C 280.66 260.69 280.93 228.38 280.62 196.07 C 280.53 189.84 274.17 187.40 270.28 183.73 C 249.64 165.84 238.16 140.20 228.87 115.11 C 227.12 109.85 224.33 104.70 224.61 99.00 C 224.66 88.03 224.58 77.06 224.65 66.08 C 220.27 63.69 215.09 65.82 211.18 68.20 Z" />
</g>
</svg>
