<svg viewBox="0 0 30 30" version="1.1" xmlns="http://www.w3.org/2000/svg">
<path fill="#2f2f2f" d=" M 7.13 3.23 C 12.68 -0.24 20.75 3.59 21.86 9.95 C 22.62 13.04 21.38 16.09 19.86 18.73 C 22.88 21.78 26.15 24.63 28.93 27.91 C 28.66 28.15 28.13 28.64 27.86 28.88 C 24.63 26.08 21.77 22.87 18.73 19.85 C 14.59 22.72 8.50 23.02 4.90 19.09 C 0.10 14.73 1.40 6.14 7.13 3.23 M 9.46 4.50 C 3.24 6.29 2.15 15.67 7.87 18.75 C 12.46 22.00 19.11 18.39 19.91 13.12 C 20.87 7.61 14.72 2.32 9.46 4.50 Z" />
</svg>
