<?xml version="1.0" standalone="no"?>
<!DOCTYPE svg PUBLIC "-//W3C//DTD SVG 20010904//EN"
 "http://www.w3.org/TR/2001/REC-SVG-20010904/DTD/svg10.dtd">
<svg version="1.0" xmlns="http://www.w3.org/2000/svg"
 width="194.000000pt" height="194.000000pt" viewBox="0 0 194.000000 194.000000"
 preserveAspectRatio="xMidYMid meet">
<metadata>
Created by potrace 1.11, written by Peter Selinger 2001-2013
</metadata>
<g transform="translate(0.000000,194.000000) scale(0.100000,-0.100000)"
fill="#000000" stroke="none">
<path d="M737 1929 c-46 -27 -50 -97 -10 -141 45 -50 152 8 139 75 -11 60 -79
95 -129 66z"/>
<path d="M1065 1928 c-29 -17 -44 -40 -45 -66 -1 -81 92 -123 145 -66 66 71
-17 179 -100 132z"/>
<path d="M715 1706 c-17 -7 -39 -26 -50 -42 -18 -27 -19 -55 -19 -489 l-1
-460 -26 -53 c-30 -60 -22 -70 12 -14 29 48 35 51 84 50 l40 -1 -51 -23 c-45
-20 -79 -54 -55 -54 5 0 11 7 15 15 6 16 36 21 36 6 0 -12 -29 -41 -41 -41
-14 0 -49 -38 -49 -52 1 -9 5 -8 13 3 10 13 72 49 84 49 1 0 3 -7 3 -15 0 -8
-17 -31 -37 -50 -44 -41 -32 -47 16 -7 26 21 34 37 38 72 6 48 37 91 47 65 3
-8 1 -17 -5 -21 -12 -7 -32 -55 -25 -61 2 -3 11 8 19 23 l14 27 5 -25 c6 -31
-5 -45 -59 -81 -24 -15 -43 -31 -43 -36 0 -5 -3 -16 -6 -25 -3 -9 -1 -16 5
-16 6 0 10 3 9 7 -3 11 25 53 34 53 5 0 8 -23 8 -52 0 -61 13 -57 15 6 2 35 9
51 34 75 17 17 31 37 31 46 0 9 5 13 10 10 22 -14 10 -63 -25 -101 -19 -20
-32 -40 -30 -43 9 -8 75 62 81 86 6 23 19 30 27 16 3 -5 -8 -34 -23 -66 -15
-33 -27 -66 -25 -75 2 -10 4 -20 4 -24 1 -5 5 -8 9 -8 5 0 7 12 5 27 -4 35 52
137 62 111 9 -22 2 -68 -14 -96 -7 -13 -10 -28 -8 -35 6 -16 46 71 47 100 0
34 -18 67 -50 88 -32 21 -60 64 -60 92 0 13 5 10 19 -13 22 -36 58 -64 82 -64
25 0 48 -32 39 -55 -12 -29 -12 -84 -1 -65 6 8 8 17 5 21 -2 4 0 10 6 14 6 4
10 -6 11 -22 1 -15 2 -32 4 -38 1 -5 3 -18 3 -27 1 -10 7 -18 12 -18 6 0 8 15
4 39 -6 38 -5 39 16 34 16 -4 21 -3 16 5 -4 7 -14 12 -21 12 -16 0 -30 41 -22
62 4 8 8 5 12 -9 8 -25 25 -31 25 -10 0 24 -38 55 -89 72 -54 17 -71 39 -23
30 84 -18 102 -28 122 -70 11 -23 20 -53 20 -67 0 -25 39 -85 40 -61 0 6 -4
14 -9 17 -5 3 -11 19 -13 35 -4 27 -3 28 25 20 16 -5 39 -16 50 -26 15 -14 19
-15 15 -3 -2 8 -24 25 -47 36 -23 12 -49 31 -57 43 -21 29 -3 26 30 -4 28 -25
56 -33 56 -15 0 6 -6 10 -14 10 -8 0 -28 14 -44 30 l-30 30 24 0 c14 0 22 4
19 10 -3 5 -23 9 -43 8 -21 0 -47 4 -59 10 -12 7 -30 12 -40 12 -10 0 -36 5
-58 12 -37 10 -38 12 -15 18 22 6 69 -6 145 -36 18 -7 18 -6 6 9 -7 9 -22 17
-32 17 -10 0 -20 4 -24 9 -6 10 58 -5 90 -21 11 -6 42 -32 68 -59 46 -46 77
-62 77 -39 0 6 -6 10 -13 10 -8 0 -22 9 -32 20 -18 19 -17 20 6 20 13 0 36 -7
52 -14 15 -8 27 -11 27 -7 0 16 -29 32 -66 37 -40 5 -131 58 -116 68 5 3 26
-6 46 -19 29 -19 49 -25 85 -24 26 1 53 -1 59 -5 7 -4 12 -3 12 2 0 14 -26 22
-73 22 -49 0 -80 15 -59 29 18 11 105 5 131 -8 11 -6 28 -11 38 -11 14 1 12 4
-8 15 -15 8 -30 27 -34 42 -17 71 -53 84 -225 84 -74 0 -142 2 -150 4 -13 4
-16 24 -14 118 1 61 2 114 3 117 1 3 54 4 119 4 101 -1 122 1 154 19 40 22 62
65 54 108 -3 13 -5 27 -5 31 -1 5 -42 51 -54 59 -1 1 -63 5 -137 8 l-135 6 0
90 c-1 50 1 95 2 100 2 6 61 10 153 9 166 -1 194 7 223 55 31 52 15 121 -36
154 -32 21 -465 24 -512 3z"/>
<path d="M130 324 c0 -8 5 -12 10 -9 6 3 10 10 10 16 0 5 -4 9 -10 9 -5 0 -10
-7 -10 -16z"/>
<path d="M205 330 c-3 -5 1 -10 9 -10 9 0 16 5 16 10 0 6 -4 10 -9 10 -6 0
-13 -4 -16 -10z"/>
<path d="M105 272 c-3 -3 -5 -61 -5 -128 0 -86 4 -125 12 -130 16 -10 138 -14
138 -5 0 4 -28 8 -62 9 -70 1 -77 8 -75 67 l2 40 53 0 c28 0 52 4 52 10 0 5
-24 10 -52 10 l-53 0 0 55 0 55 70 6 c39 3 66 7 60 8 -21 5 -135 7 -140 3z"/>
<path d="M353 259 c-56 -35 -75 -146 -37 -204 31 -48 99 -68 157 -46 20 8 23
15 21 45 -3 32 0 37 24 43 l27 7 -25 6 c-34 9 -41 0 -42 -49 0 -23 -5 -42 -12
-42 -50 -6 -64 -5 -84 2 -48 18 -76 70 -68 125 3 22 5 44 6 50 0 19 49 62 77
67 40 7 81 -11 92 -41 l9 -27 1 26 c1 15 -6 32 -15 40 -25 21 -96 20 -131 -2z"/>
<path d="M646 228 c-40 -88 -77 -173 -77 -175 1 -2 1 -4 0 -5 0 -2 -2 -14 -5
-28 -4 -24 -3 -24 11 -6 8 11 15 28 15 37 0 22 19 27 95 27 l60 0 18 -41 c9
-22 20 -37 24 -34 3 4 2 17 -4 30 -6 12 -19 42 -28 67 -9 25 -22 59 -30 75 -7
17 -18 45 -25 63 -7 18 -16 35 -21 38 -5 3 -20 -19 -33 -48z m66 -61 c15 -39
28 -73 28 -74 0 -1 -29 -1 -65 -2 -42 0 -65 4 -65 11 0 18 62 149 68 143 3 -3
18 -38 34 -78z"/>
<path d="M851 270 c-9 -7 -8 -269 1 -264 5 3 8 30 8 60 0 45 3 54 16 52 10 -2
19 2 21 8 2 7 -4 11 -14 10 -15 -1 -18 8 -21 62 l-3 62 72 0 c40 0 69 3 66 7
-8 8 -135 11 -146 3z"/>
<path d="M1086 263 c-35 -18 -56 -63 -56 -118 0 -73 39 -130 96 -141 80 -15
144 52 144 149 0 97 -98 155 -184 110z m137 -32 c23 -23 28 -36 29 -79 0 -100
-71 -164 -142 -127 -49 25 -68 75 -62 160 3 31 45 73 77 78 44 6 67 -2 98 -32z"/>
<path d="M1375 269 c-79 -39 -81 -195 -4 -249 95 -68 206 46 173 179 -16 62
-108 100 -169 70z m117 -20 c61 -33 55 -174 -8 -216 -38 -24 -61 -26 -95 -6
-63 37 -81 159 -30 207 14 13 33 26 41 28 19 6 70 -1 92 -13z"/>
<path d="M1600 269 c0 -4 5 -9 10 -11 11 -3 17 -174 7 -184 -12 -12 15 -62 37
-68 21 -5 61 -1 100 11 83 25 101 192 24 237 -30 18 -178 31 -178 15z m154
-19 c73 -27 82 -142 16 -205 -16 -16 -30 -26 -30 -23 0 4 -13 3 -29 -2 -18 -5
-37 -4 -52 4 -22 11 -23 17 -24 116 -1 58 1 108 3 113 5 10 86 9 116 -3z"/>
<path d="M910 129 c0 -5 14 -9 30 -9 17 0 30 3 30 8 0 4 -13 8 -30 8 -16 1
-30 -2 -30 -7z"/>
</g>
</svg>
